<?xml version="1.0" standalone="no"?>
<!DOCTYPE svg PUBLIC "-//W3C//DTD SVG 1.1//EN" "http://www.w3.org/Graphics/SVG/1.1/DTD/svg11.dtd" >
<svg xmlns="http://www.w3.org/2000/svg">
<metadata></metadata>
<defs>
<font id="meliorroman" horiz-adv-x="1138" >
<font-face units-per-em="2048" ascent="1638" descent="-410" />
<missing-glyph horiz-adv-x="569" />
<glyph horiz-adv-x="2048" />
<glyph horiz-adv-x="2048" />
<glyph unicode="&#xd;" horiz-adv-x="2048" />
<glyph unicode=" "  horiz-adv-x="569" />
<glyph unicode="&#x09;" horiz-adv-x="569" />
<glyph unicode="&#xa0;" horiz-adv-x="569" />
<glyph unicode="!" horiz-adv-x="681" d="M227 115q0 -57 31 -96t84 -39t84 38.5t31 96.5q0 57 -31 95t-84 38t-84 -38t-31 -95zM229 1303q0 -6 2 -17v-20l66 -742v-6q2 -33 10 -61.5t35 -67.5q27 37 35 65.5t10 63.5v6l66 742v20q2 10 2 17q0 78 -31 109.5t-82 31.5t-82 -32t-31 -109z" />
<glyph unicode="&#x22;" horiz-adv-x="759" d="M104 1341l2 -6v-4l68 -401h41l68 401v4l2 6q0 31 -28 55.5t-62 24.5q-35 0 -63 -24.5t-28 -55.5zM477 1331l68 -401h41l67 401v4l2 6q0 31 -27.5 55.5t-62.5 24.5t-61.5 -24.5t-26.5 -55.5v-6v-4z" />
<glyph unicode="#" d="M68 424h219l-68 -424h119l68 424h274l-64 -424h119l64 424h223v108h-205l41 263h215v108h-199l62 397h-119l-61 -397h-273l64 397h-119l-63 -397h-242v-108h225l-43 -263h-237v-108zM424 532l43 263h272l-41 -263h-274z" />
<glyph unicode="$" d="M100 61q94 -43 198.5 -62t215.5 -19h47v-195h72v201q92 14 164.5 39.5t127 69.5t84 114t29.5 166q0 80 -26.5 139t-72.5 101t-104.5 71t-138.5 57l-63 23v508q80 0 128 -23.5t71.5 -61.5t30.5 -77t11 -98q2 -37 5 -51h106v313q-172 66 -352 72v96h-72v-96 q-176 -6 -291.5 -98.5t-115.5 -266.5q0 -84 31.5 -144.5t84 -100.5t113.5 -65.5t154 -58.5l24 -8v-559q-14 0 -33 -2h-26q-92 0 -147.5 26.5t-81 70.5t-33 90.5t-9.5 115.5q-2 45 -4 62h-127v-349zM319 1040q0 111 67 168.5t175 65.5v-483l-86 30q-78 33 -117 85t-39 134z M633 55v527q111 -37 172 -99.5t61 -169.5q0 -104 -64.5 -174.5t-168.5 -83.5z" />
<glyph unicode="%" horiz-adv-x="2048" d="M168 1047q0 -178 93 -272.5t255 -94.5t255 94t93 273q0 178 -93 272t-255 94t-255 -94t-93 -272zM328 1047q0 61 7 113t27.5 97.5t58.5 73t95 27.5q59 0 97 -27.5t57.5 -73t27 -98.5t7.5 -112t-7.5 -112.5t-27 -98.5t-57.5 -73t-97 -28q-57 0 -95 28t-58.5 73t-27.5 98 t-7 113zM530 -147h101l799 1673h-101zM1108 346q0 -178 93 -272t255 -94t255 94t93 272t-93 272.5t-255 94.5t-255 -94.5t-93 -272.5zM1268 346q0 61 7 113.5t27.5 97.5t58.5 72.5t95 27.5q59 0 97 -27.5t57.5 -72.5t27 -98t7.5 -113q0 -59 -7.5 -112.5t-27 -98.5 t-57.5 -72.5t-97 -27.5q-57 0 -95 27.5t-58.5 72.5t-27.5 98.5t-7 112.5z" />
<glyph unicode="&#x26;" horiz-adv-x="1366" d="M86 272q0 -70 29.5 -124t77 -92t104.5 -57t113 -19q131 0 228 43t185 141l150 -168q37 2 82 2t82 2q35 -2 82 -2q45 0 79 -2v70v4q-92 2 -134 14t-77 39l-167 176l153 254q41 66 68.5 82t103.5 27q41 4 53 6v59q-55 -2 -120 -2q-68 0 -123 -2q-55 2 -123 2t-123 2v-59 q92 -4 133 -15.5t41 -40.5q0 -2 -2 -4v-6q-18 -68 -38.5 -110.5t-68.5 -120.5l-6 -11l-309 340q4 2 39 29q117 84 173 151.5t56 178.5q0 119 -80.5 180t-203.5 61q-141 0 -228.5 -80.5t-87.5 -222.5q0 -82 43 -163.5t109 -163.5q-49 -29 -98.5 -68t-90 -87t-68.5 -103.5 t-34 -112.5v-14q-2 -12 -2 -13zM258 328q0 90 43 164.5t121 125.5l352 -401l-18 -22q-47 -57 -112.5 -91t-137.5 -34q-104 0 -176 75.5t-72 182.5zM375 1071q0 74 43 119t117 45q78 0 118.5 -54.5t40.5 -133.5q0 -104 -42 -164t-140 -129q-66 78 -101.5 153.5t-35.5 163.5z " />
<glyph unicode="'" horiz-adv-x="425" d="M123 1341l2 -6v-4l68 -401h40l68 401v4l2 6q0 31 -27.5 55.5t-62.5 24.5t-62.5 -24.5t-27.5 -55.5z" />
<glyph unicode="(" horiz-adv-x="681" d="M162 612q0 -211 12 -357t54 -273t132.5 -206t237.5 -91v57q-92 35 -147.5 116t-82 192.5t-34.5 241.5t-8 314q0 205 8 337t34.5 237.5t82 178.5t147.5 109v58q-147 -10 -237.5 -87t-132.5 -200t-54 -270.5t-12 -356.5z" />
<glyph unicode=")" horiz-adv-x="681" d="M90 -258v-57q147 12 237.5 91t132.5 206t54 273t12 357q0 209 -12 356.5t-54 270.5t-132 200t-238 87v-58q92 -37 147.5 -109.5t82 -178t34.5 -237.5t8 -337q0 -184 -8 -314t-34.5 -242.5t-82 -192.5t-147.5 -115z" />
<glyph unicode="*" d="M201 1120l315 -80l-242 -219l123 -100l170 283l170 -283l123 100l-242 219l316 80l-72 133l-260 -155l45 315h-160l45 -315l-260 155z" />
<glyph unicode="+" horiz-adv-x="1241" d="M104 453h451v-455h131v455h451v131h-451v448h-131v-448h-451v-131z" />
<glyph unicode="," horiz-adv-x="569" d="M162 -219l33 -55q121 66 181 148.5t60 209.5q0 55 -32.5 110.5t-88.5 55.5q-53 0 -87.5 -36t-34.5 -99q0 -53 32.5 -85t81.5 -32h15q10 2 14 2q0 -70 -54.5 -132.5t-119.5 -86.5z" />
<glyph unicode="-" horiz-adv-x="681" d="M90 432h502v152h-502v-152z" />
<glyph unicode="." horiz-adv-x="569" d="M160 115q0 -57 30.5 -96t83.5 -39t84 38.5t31 96.5q0 57 -30.5 96t-84.5 39q-53 0 -83.5 -39t-30.5 -96z" />
<glyph unicode="/" horiz-adv-x="796" d="M78 -20h125l518 1546h-127z" />
<glyph unicode="0" d="M109 641q0 -154 14 -266.5t60 -202.5t139.5 -141t244.5 -51q152 0 246 51t140 141t60.5 202.5t14.5 266.5q0 156 -14.5 268.5t-60.5 201.5t-140 139t-246 50t-245 -51t-139 -140t-60 -201.5t-14 -266.5zM313 641q0 135 7.5 235.5t33 182.5t77.5 129t136 47 q86 0 138.5 -47t77 -129t32.5 -180.5t8 -237.5t-8 -238.5t-32.5 -180.5t-77 -128t-138.5 -47q-84 0 -136 48t-76.5 129t-33 181.5t-8.5 235.5z" />
<glyph unicode="1" d="M166 938q80 20 156.5 70.5t183.5 134.5l20 16v-954q0 -55 -6 -81t-28.5 -38t-69.5 -16t-152 -4v-70q104 2 170 2q131 0 178 2q43 -2 168 -2q68 0 164 -2v70q-94 0 -140 4t-67.5 17t-26.5 38t-5 80v1075h-166q-86 -76 -177.5 -135.5t-201.5 -93.5v-113z" />
<glyph unicode="2" d="M137 0h828v352h-72q-4 -29 -6 -43q-10 -90 -37 -119.5t-129 -29.5h-461l223 211q10 10 68 61q82 72 143.5 132.5t120.5 133t96 149.5t37 152q0 82 -32.5 141.5t-89 94.5t-126 50t-147.5 15q-72 0 -137.5 -13t-119.5 -44t-89 -82t-41 -125v-14q-2 -10 -2 -21q0 -37 8 -60 t31 -23h71q33 0 42.5 17t9.5 54q0 4 2 10v7q2 6 6 34q8 41 17 73t30.5 59.5t61.5 44t102 16.5q102 0 153.5 -64.5t51.5 -167.5q0 -82 -35 -165.5t-91.5 -161.5t-113.5 -141.5t-145 -151.5q-35 -35 -35 -37l-193 -192v-152z" />
<glyph unicode="3" d="M143 266q4 -127 92.5 -206.5t262.5 -79.5q106 0 189 18t145.5 60t97.5 117t35 183q0 129 -65.5 218.5t-190.5 113.5v4q104 29 162.5 104.5t58.5 184.5q0 160 -106.5 238.5t-272.5 78.5q-176 0 -277.5 -70.5t-101.5 -234.5q0 -45 45 -45h62h8q4 -2 6 -2q35 0 35 43l6 33 q6 100 49 154.5t133 54.5q4 0 14 -2h17q106 -8 148 -71.5t42 -176.5q0 -150 -53 -203t-201 -63q-31 0 -88 8v-90q68 10 123 10q141 0 194.5 -68.5t53.5 -216.5q0 -150 -56.5 -232.5t-197.5 -82.5q-61 0 -101 19.5t-58.5 48t-24.5 57.5t-9 68q-2 23 -4 28q0 47 -10 65.5 t-51 18.5h-49q-41 0 -51.5 -21.5t-10.5 -62.5z" />
<glyph unicode="4" d="M57 373h584v-168q0 -47 -8 -75t-31.5 -43t-70 -20.5t-125.5 -5.5v-65q96 2 157 2q119 0 162 2q53 -2 147 -2q96 -2 148 -2v65q-80 0 -120 5.5t-59.5 18.5t-25.5 40t-6 80v168h190l21 133h-211v774h-186q-131 -199 -268.5 -395.5t-297.5 -413.5v-98zM199 506l442 659v-659 h-442z" />
<glyph unicode="5" d="M135 260q8 -147 106.5 -213.5t290.5 -66.5q207 0 321 107.5t114 315.5q0 211 -94.5 323t-299.5 112q-80 0 -153.5 -25t-122.5 -78v385h545l28 29q0 2 13 27q14 35 24.5 58t10.5 36q0 10 -9 10h-714q8 -125 12 -216t4 -169q-2 -63 -2 -143q-2 -80 -4 -144l84 -8 q63 147 219 148q76 0 127 -27t79.5 -74t40 -108.5t11.5 -135.5q0 -61 -11.5 -121.5t-38 -112.5t-72.5 -86t-112 -38q-117 0 -169 49t-56 166q0 47 -10 65.5t-51 18.5h-49q-41 0 -51.5 -21.5t-10.5 -62.5z" />
<glyph unicode="6" d="M113 670q0 -168 10 -278.5t51 -205t132 -150.5t247 -56q221 0 344 109.5t123 328.5q0 408 -406 407q-88 0 -154.5 -26.5t-142.5 -87.5q0 117 7.5 201.5t33 156.5t81 116t147.5 44q55 0 91 -14.5t54.5 -36t26.5 -45t14 -56.5q4 -18 6 -26v-9l-2 -6q0 -37 39 -43h62 q61 0 61 29q-6 137 -91 207.5t-263 70.5q-145 0 -239.5 -48t-144.5 -134t-68.5 -195.5t-18.5 -252.5zM315 426q0 156 58.5 239t208.5 83q72 0 120 -29t73.5 -77t34.5 -106.5t9 -129.5q0 -70 -9 -131.5t-32.5 -113.5t-72 -84t-121.5 -32q-88 0 -142.5 28.5t-81 80t-36 116 t-9.5 156.5z" />
<glyph unicode="7" d="M190 913h68q0 74 8 115t27.5 60.5t52.5 24.5t94 5h434q-39 -59 -86 -133q-121 -186 -167 -261t-114.5 -188.5t-141 -243.5t-156.5 -292h201q88 209 161.5 372t144 301t145.5 261t157 237v109h-828v-367z" />
<glyph unicode="8" d="M115 365q0 -199 120.5 -292t327.5 -93t328 93t121 292q0 283 -279 346q123 47 174 122.5t51 170.5q0 78 -32.5 135t-89 93t-126 52t-147.5 16q-76 0 -146.5 -16t-127 -52t-89 -93.5t-32.5 -134.5q0 -94 51 -170t174 -123q-279 -63 -278 -346zM313 344q0 66 12.5 122 t39 101t74.5 72t118 27h6q70 0 118 -27t75.5 -72t39 -101t11.5 -122q0 -297 -250 -297q-244 0 -244 297zM356 997q0 109 49.5 173.5t153.5 64.5q109 0 160 -63.5t51 -174.5q0 -246 -207 -252q-104 0 -155.5 66t-51.5 186z" />
<glyph unicode="9" d="M119 856q0 -186 96 -296.5t281 -110.5q102 0 174.5 24.5t142.5 91.5l6 -4q0 -4 -2 -59q0 -100 -7 -172t-31.5 -137.5t-79 -106.5t-146.5 -41q-55 0 -91 14.5t-54.5 36t-25.5 45t-13 60.5q-6 35 -13 47q-8 31 -45 37h-57q-49 0 -49 -76q0 -102 97 -165.5t224 -63.5 q158 0 255.5 41.5t148.5 121.5t70.5 191.5t23.5 281.5q0 162 -10 271.5t-52 204t-133.5 150.5t-242.5 58q-221 0 -344 -112.5t-123 -331.5zM317 868q0 76 9.5 137.5t35 112.5t76.5 81t129 30q76 0 126 -25.5t79 -72t40 -106.5t11 -136q0 -82 -9 -145.5t-36.5 -112.5t-81 -77 t-139.5 -28q-72 0 -120 29t-73.5 77t-36 107t-10.5 129z" />
<glyph unicode=":" horiz-adv-x="569" d="M184 115q0 -57 31 -96t84 -39t84 38.5t31 96.5q0 57 -31 96t-84 39t-84 -39t-31 -96zM184 817q0 -57 31 -96t84 -39t84 39t31 96t-31 96t-84 39t-84 -39t-31 -96z" />
<glyph unicode=";" horiz-adv-x="569" d="M154 -219l32 -55q121 66 181.5 148.5t60.5 209.5q0 55 -33 110.5t-88 55.5q-53 0 -88 -36t-35 -99q0 -53 33 -85t82 -32h14q10 2 15 2q0 -70 -54.5 -132.5t-119.5 -86.5zM184 817q0 -57 31 -96t84 -39t84 39t31 96t-31 96t-84 39t-84 -39t-31 -96z" />
<glyph unicode="&#x3c;" horiz-adv-x="1241" d="M100 463l1043 -479v127l-877 407l877 408v127l-1043 -480v-110z" />
<glyph unicode="=" horiz-adv-x="1241" d="M104 254h1033v129h-1033v-129zM104 653h1033v129h-1033v-129z" />
<glyph unicode="&#x3e;" horiz-adv-x="1241" d="M98 -16l1043 479v110l-1043 480v-127l877 -408l-877 -407v-127z" />
<glyph unicode="?" horiz-adv-x="909" d="M104 1149q0 -10 1 -19.5t6 -15.5q8 -14 84 -14q57 0 59 22q6 129 46 191.5t153 68.5q88 0 134 -61t46 -152q0 -137 -56.5 -196.5t-179.5 -59.5q-8 0 -24 2h-25l41 -434q2 -29 12.5 -59.5t30.5 -30.5q16 0 28.5 30t14.5 54l62 397q137 12 208.5 90t71.5 195 q0 143 -102.5 215t-249.5 72q-154 0 -257.5 -74t-103.5 -221zM317 115q0 -57 31 -96t84 -39t84 38.5t31 96.5q0 57 -31 96t-84 39t-84 -39t-31 -96z" />
<glyph unicode="@" horiz-adv-x="1529" d="M59 694q0 -154 60.5 -286t167 -228t247 -148t295.5 -52q203 0 381.5 107.5t272.5 283.5h-125q-90 -135 -224.5 -212t-293.5 -77q-139 0 -261 45t-214.5 129t-142.5 199.5t-50 253.5q0 137 49 253.5t138.5 201.5t210 131t257.5 46q123 0 225.5 -38.5t177.5 -107.5 t114.5 -156t39.5 -183q0 -102 -31.5 -194.5t-80.5 -161t-104.5 -107.5t-100.5 -39q-31 0 -43 17.5t-12 44.5q0 25 8 55l158 573h-181l-34 -135h-5q-12 74 -58 115t-122 41q-86 0 -166 -39t-142 -106.5t-98 -150.5t-36 -167q0 -127 78 -212t196 -85q80 0 131.5 38t118.5 124 q4 -72 44 -122t112 -50q80 0 164 44t155.5 123t114.5 182.5t43 215.5q0 131 -55.5 239.5t-152.5 185.5t-219 118t-253 41q-160 0 -298 -57.5t-240.5 -160t-159 -239.5t-56.5 -293zM518 541q0 55 21.5 135t61.5 156.5t94.5 127t117.5 50.5q55 0 82 -48.5t27 -103.5 t-18.5 -140t-54.5 -166t-89.5 -136.5t-116.5 -55.5q-66 0 -95.5 54.5t-29.5 126.5z" />
<glyph unicode="A" horiz-adv-x="1593" d="M41 -4q53 2 121 2t121 2q53 -2 120 -2q68 0 121 -2v74q-80 0 -125 15t-45 75q0 18 5.5 41.5t13.5 48.5l127 354h491l133 -342q2 -6 9 -20q24 -57 24 -89q0 -30 -21.5 -46.5t-53 -24.5t-57.5 -10t-46 -2v-74q63 2 141 2t142 2q63 -2 141 -2q76 0 139 -2v70q-55 0 -96 22.5 t-66.5 55t-41 63.5t-29.5 72l-4 10l-431 1124h-135l-440 -1069l-16 -37q-29 -66 -50.5 -114t-35.5 -64q-27 -33 -52.5 -43t-70.5 -12q-23 -2 -33 -4v-74zM526 682l226 547l204 -527l9 -20h-439z" />
<glyph unicode="B" horiz-adv-x="1366" d="M61 -4q63 2 146 2q80 0 143 2q68 -2 156 -2q86 0 153 -2h5q121 4 214 16.5t156 44.5q100 51 138 132t38 206q0 166 -79.5 250t-247.5 103v4q147 25 217.5 100.5t70.5 222.5q0 113 -34.5 182.5t-95 103.5t-140.5 45t-192 11q-27 0 -174 -2q-154 -2 -185 -2q-63 2 -143 2 q-82 0 -146 2v-69q74 0 114 -6.5t57.5 -21.5t21.5 -39t4 -73v-1003q0 -49 -4 -74t-21.5 -39t-57.5 -20t-114 -6v-70zM442 84v621h238q178 0 251 -65t73 -241q0 -51 -6.5 -96t-21.5 -85t-47 -69.5t-81 -42.5q-68 -18 -131.5 -23t-163.5 -5zM442 782v547q37 2 54 4 q109 6 163 6q90 0 146.5 -11t92.5 -39.5t52.5 -84t16.5 -145.5q0 -137 -58.5 -207t-187.5 -70h-279z" />
<glyph unicode="C" horiz-adv-x="1366" d="M72 717q0 -182 34.5 -318.5t111.5 -229.5t205 -141t312 -48q37 0 115 6t165 17t159.5 26.5t105.5 31.5v363h-117q-10 -119 -26.5 -186.5t-53 -109.5t-106.5 -60.5t-189 -18.5q-156 0 -257 54.5t-154 150.5t-72.5 219t-19.5 279q0 135 24.5 244.5t82 193.5t153.5 131 t233 47q100 0 167 -11t112 -40t70.5 -83t35.5 -140l6 -60h111v330q-145 43 -257 61.5t-245 18.5q-369 0 -537.5 -177t-168.5 -550z" />
<glyph unicode="D" horiz-adv-x="1478" d="M35 -4q63 2 145 2q80 0 144 2q96 -2 215 -2q117 0 213 -2q188 10 310 55t190.5 133t96 220.5t27.5 328.5q0 88 -6 165t-25.5 152.5t-57.5 143.5t-97 117q-74 61 -176.5 83.5t-243.5 22.5q-29 0 -176 -2q-223 -2 -270 -2q-63 2 -144 2q-82 0 -145 2v-69q74 0 113.5 -6.5 t57 -21.5t21.5 -39t4 -73v-1003q0 -49 -4 -74t-21.5 -39t-57 -20t-113.5 -6v-70zM416 88v1235q139 16 276 16q166 0 263.5 -48t142.5 -136t56 -198.5t11 -288.5q0 -172 -24.5 -282t-85 -177.5t-165 -98t-267.5 -30.5q-100 0 -207 8z" />
<glyph unicode="E" horiz-adv-x="1251" d="M31 0h1112v418h-109q-12 -119 -23.5 -179.5t-36 -92t-68.5 -44t-128 -14.5h-366v617h159q74 0 115 -7.5t60.5 -21.5t24.5 -36t7 -67q4 -47 8 -79h91v491h-91q0 -78 -8 -119t-29.5 -60.5t-60.5 -25.5t-117 -6h-159v565h346q106 0 155.5 -8t73 -33.5t31.5 -73.5t16 -163v-4 h109v360h-1112v-69q74 0 113.5 -6.5t57 -21.5t21.5 -39t4 -73v-999q0 -49 -4 -73.5t-21.5 -39t-57.5 -20.5t-113 -6v-70z" />
<glyph unicode="F" horiz-adv-x="1251" d="M61 -4q63 2 146 2q80 0 143 2q63 -2 146 -2q80 0 143 -2v70q-74 0 -113 6t-57 21.5t-22.5 39t-4.5 72.5v495h160q74 0 115 -7t60.5 -21.5t24.5 -36t7 -66.5q4 -47 8 -80h90v492h-90q0 -78 -8 -119t-29.5 -60.5t-60.5 -25.5t-117 -6h-160v565h346q106 0 155.5 -8t73 -33.5 t32 -74t16.5 -162.5v-4h109v360h-1113v-70q74 0 114 -6t57.5 -21.5t21.5 -39t4 -72.5v-999q0 -49 -4 -74t-21.5 -39t-57.5 -20t-114 -6v-70z" />
<glyph unicode="G" horiz-adv-x="1478" d="M76 702q0 -367 153.5 -544.5t511.5 -177.5q285 0 562 90q-8 27 -9 82v190q0 47 4.5 70.5t18.5 39t46 23.5t91 10v68q-27 0 -123 -2q-63 0 -127 -2q-45 2 -172 2q-68 0 -168 2v-70q100 0 146.5 -4t68 -17t26.5 -38t5 -82v-209q-72 -41 -154 -60.5t-155 -19.5 q-152 0 -252 46t-157.5 130t-80 199t-22.5 266q0 141 21.5 260t76.5 212.5t154.5 147.5t251.5 54q113 0 180 -12.5t108 -47t62.5 -99t30.5 -175.5h120v330q-145 43 -256.5 61.5t-244.5 18.5q-379 -8 -548 -189.5t-169 -552.5z" />
<glyph unicode="H" horiz-adv-x="1593" d="M49 -4q63 2 146 2q80 0 143 2q63 -2 145 -2q80 0 144 -2v70q-68 0 -104 4t-54 16q-39 23 -39 119v500h731v-500q0 -96 -39 -119q-20 -12 -55 -16t-102 -4v-70q63 2 145 2q80 0 143 2q63 -2 146 -2q80 0 143 -2v70q-68 0 -103.5 4t-54.5 16q-39 23 -38 119v1003 q0 96 38 119q20 14 55.5 17.5t102.5 3.5v69q-63 -2 -143 -2q-82 0 -146 -2q-63 2 -143 2q-82 0 -145 2v-69q123 0 159.5 -21.5t36.5 -118.5v-420h-731v420q0 96 37 118t160 22v69q-63 -2 -144 -2q-82 0 -145 -2q-63 2 -143 2q-82 0 -146 2v-69q68 0 103.5 -3.5t54.5 -17.5 q39 -23 39 -119v-1003q0 -96 -39 -119q-20 -12 -55 -16t-103 -4v-70z" />
<glyph unicode="I" horiz-adv-x="681" d="M53 -4q63 2 146 2q80 0 143 2q63 -2 145 -2q80 0 144 -2v70q-68 0 -103.5 4t-54.5 16q-39 23 -39 119v1003q0 96 37 118t160 22v69q-63 -2 -144 -2q-82 0 -145 -2q-63 2 -143 2q-82 0 -146 2v-69q68 0 104 -3.5t54 -17.5q39 -23 39 -119v-1003q0 -96 -39 -119 q-20 -12 -55 -16t-103 -4v-70z" />
<glyph unicode="J" horiz-adv-x="681" d="M-27 -371v-43q129 16 221.5 70.5t149.5 139.5t83 192.5t26 236.5v983q0 96 36.5 118t159.5 22v69q-63 -2 -143 -2q-82 0 -146 -2q-63 2 -143 2q-82 0 -145 2v-69q68 0 103.5 -3.5t53.5 -17.5q39 -23 39 -119v-987q0 -119 -8 -205t-36.5 -162.5t-89 -136t-161.5 -88.5z " />
<glyph unicode="K" horiz-adv-x="1478" d="M66 -4q63 2 145 2q80 0 143 2q63 -2 146 -2q80 0 143 -2v70q-68 0 -103.5 4t-54.5 16q-39 23 -39 119v497q385 -362 641 -673l25 -33q39 2 86 2q45 0 84 2q39 -2 86 -2q45 0 84 -2v70q-84 0 -131 27.5t-98 80.5l-15 16q-145 143 -415 433q-145 154 -164 174l428 397 q59 53 92 78.5t66.5 43t76.5 27t111 15.5v59q-41 -2 -92 -2t-92 -2q-16 0 -93 2q-51 0 -94 2v-41q29 -4 29 -26q0 -8 -6 -21q-229 -219 -319.5 -305t-179.5 -171t-98 -94t-12 -9v458q0 96 37 118t160 22v69q-63 -2 -143 -2q-82 0 -146 -2q-63 2 -143 2q-82 0 -145 2v-69 q68 0 103.5 -3.5t53.5 -17.5q39 -23 39 -119v-1003q0 -96 -39 -119q-20 -12 -55 -16t-102 -4v-70z" />
<glyph unicode="L" horiz-adv-x="1251" d="M66 0h1108v416h-109q-12 -119 -23.5 -180.5t-36 -94t-68.5 -44t-128 -13.5h-363v1124q0 49 4.5 74t21.5 39t57 20.5t114 6.5v69q-63 -2 -143 -2q-82 0 -146 -2q-63 2 -143 2q-82 0 -145 2v-69q74 0 113.5 -6.5t57 -21.5t21.5 -39t4 -73v-1003q0 -49 -4 -74t-21.5 -39 t-57.5 -20t-113 -6v-66z" />
<glyph unicode="M" horiz-adv-x="1933" d="M47 -4q53 2 121 2q66 0 119 2q53 -2 121 -2q66 0 118 -2v70q-119 0 -153.5 22.5t-34.5 116.5v960h4l555 -1165q8 -14 25 -14q14 0 22 16l555 1186h4v-983q0 -96 -39 -119q-20 -12 -55 -16t-102 -4v-70q63 2 145 2q80 0 143 2q63 -2 146 -2q80 0 143 -2v70q-68 0 -103.5 4 t-54.5 16q-39 23 -38 119v1003q0 96 36.5 118t159.5 22v69q-41 -2 -92 -2t-92 -2q-41 2 -92 2t-92 2l-547 -1141l-557 1141q-41 -2 -90 -2q-51 0 -93 -2q-41 2 -90 2q-51 0 -92 2v-69q117 0 153 -22.5t36 -117.5v-1003q0 -94 -34 -116.5t-155 -22.5v-70z" />
<glyph unicode="N" horiz-adv-x="1593" d="M43 -4q53 2 121 2q66 0 119 2q53 -2 120 -2q66 0 119 -2v70q-119 0 -153.5 22.5t-34.5 116.5v991l905 -1196h133v1208q0 51 7 79t25.5 40t49.5 16.5t94 4.5v69q-51 -2 -116 -2q-66 0 -117 -2q-51 2 -117 2t-117 2v-69q121 0 155 -22.5t34 -117.5v-962l-877 1171 q-39 -2 -86 -2q-49 0 -88 -2q-39 2 -88 2t-88 2v-69q117 0 152.5 -22.5t35.5 -117.5v-1003q0 -94 -33.5 -116.5t-154.5 -22.5v-70z" />
<glyph unicode="O" horiz-adv-x="1593" d="M90 713q0 -199 36 -336t117 -225.5t215 -130t333 -41.5q209 0 344 41.5t212.5 130t110.5 224.5t33 337q0 199 -36 336t-115.5 225t-214 129t-334.5 41q-201 0 -335 -41t-214 -129t-116 -225.5t-36 -335.5zM299 713q0 143 20.5 257.5t73.5 206t152 143.5t246 52 q150 0 247 -52t150 -143.5t73.5 -206t20.5 -257.5t-20.5 -259t-73.5 -206t-151.5 -143.5t-245.5 -53.5t-246 53.5t-152 144.5t-73.5 205.5t-20.5 258.5z" />
<glyph unicode="P" horiz-adv-x="1251" d="M39 -4q63 2 145 2q80 0 144 2q63 -2 145 -2q80 0 143 -2v70q-74 0 -112.5 6t-57 21.5t-22.5 39t-4 72.5v424h188q139 0 235.5 14t167 58t108.5 131.5t38 226.5q0 199 -97 278.5t-308 79.5q-94 -2 -211 -2q-119 0 -213 -2q-63 2 -144 2q-82 0 -145 2v-69q74 0 114 -6.5 t57 -21.5t21.5 -39t4.5 -73v-1003q0 -49 -4.5 -74t-21.5 -39t-57 -20t-114 -6v-70zM420 700v643h201q98 0 156.5 -9t97 -40.5t58 -96t19.5 -175.5q0 -113 -30.5 -178.5t-86 -96t-127 -39t-188.5 -8.5h-100z" />
<glyph unicode="Q" horiz-adv-x="1593" d="M88 668q2 -139 26.5 -253t80 -203t148.5 -145.5t226 -72.5l-2 -2q-82 -78 -121 -119l46 -41l24 25q8 6 37 30q45 39 82 62.5t74 23.5q18 0 32 -6q84 -33 164 -77t195 -117q115 -74 193.5 -118t164.5 -77l234 115l-27 43q-14 -4 -25 -6q-57 -18 -88 -19q-23 0 -63.5 16.5 t-91.5 43t-101.5 56.5t-124.5 73q-86 51 -110.5 65.5t-50.5 26.5v4q92 4 176 41t153.5 120t110.5 221t41 335q0 223 -48 368.5t-138.5 224t-213 108.5t-290.5 30q-209 0 -346.5 -43t-217 -135t-114.5 -237.5t-35 -360.5zM297 762q0 131 26.5 240.5t86 192.5t160 130 t243.5 47q133 0 223 -48t142.5 -132t75 -189.5t28.5 -236.5q0 -137 -10 -245.5t-48 -208t-118 -167t-209 -84.5l-18 9q-59 28 -93 28h-2q-51 0 -125 -37q-119 23 -193.5 92.5t-110.5 167t-47 205t-11 236.5z" />
<glyph unicode="R" horiz-adv-x="1366" d="M41 -4q63 2 145 2q80 0 144 2q63 -2 145 -2q80 0 143 -2v70q-74 0 -112.5 6t-57 21.5t-22.5 39t-4 72.5v504q57 0 89 -2t60 -13q23 -8 80.5 -81.5t128 -178t144 -220.5t137.5 -218q33 2 76 2q41 0 73 2q33 -2 74 -2t74 -2v70q-68 4 -104.5 31.5t-82.5 84.5l-12 17 q-23 29 -71 98.5t-113.5 168.5t-111.5 169t-66 102q178 20 270 104.5t92 256.5q0 111 -31.5 175t-89 95t-132.5 40t-189 9q-66 0 -258 -2q-104 -2 -129 -2q-63 2 -144 2q-82 0 -145 2v-69q74 0 114 -6.5t57 -21.5t21.5 -39t4.5 -73v-1003q0 -49 -4.5 -74t-21.5 -39t-57 -20 t-114 -6v-70zM422 778v559l78 2q102 4 153 4q164 0 231.5 -58t67.5 -220q0 -102 -34.5 -161.5t-93 -87.5t-129 -35t-175.5 -7q-49 0 -66.5 1t-31.5 3z" />
<glyph unicode="S" horiz-adv-x="1251" d="M127 68q100 -45 213 -66.5t229 -21.5q115 0 214.5 20t177 67.5t123.5 130.5t46 203q0 86 -28.5 149.5t-78.5 109t-112.5 77t-146.5 60.5l-236 84q-84 35 -125 90t-41 143q0 129 83 190.5t214 61.5q96 0 154.5 -21.5t87.5 -58.5t37 -79t14 -111q2 -39 6 -66h115v336 q-111 41 -213 59.5t-209 18.5q-94 0 -178 -23.5t-149.5 -72t-102.5 -123t-37 -172.5q0 -86 29 -146.5t78 -101.5t108.5 -68.5t149.5 -60.5q18 -6 49 -17q82 -27 137.5 -50t103.5 -58t77.5 -88t29.5 -127q0 -143 -100.5 -215t-249.5 -72q-113 0 -178.5 22.5t-95 63.5t-39 88 t-13.5 129q-4 57 -6 86h-137v-370z" />
<glyph unicode="T" horiz-adv-x="1366" d="M66 1053h102q16 113 32.5 163t55.5 76.5t111.5 34.5t220.5 8v-1130q0 -51 -9.5 -79t-31 -41t-57 -16t-109.5 -3v-70q70 2 149 2q123 2 150 2q29 0 149 -2q80 0 150 -2v70q-74 0 -109.5 3t-57 16t-31 41t-9.5 79v1130q152 0 223.5 -8t109.5 -33.5t53.5 -76t33.5 -164.5 h102v360h-1228v-360z" />
<glyph unicode="U" horiz-adv-x="1593" d="M59 1348q70 0 107 -6.5t54.5 -21.5t21.5 -39t4 -73v-770q0 -240 131 -349t381 -109q154 0 265.5 25.5t189 83.5t116.5 157.5t39 247.5v714q0 47 4 72t20.5 39t54.5 21.5t105 7.5v69q-55 -2 -127 -2t-127 -2q-55 2 -127 2t-127 2v-69q86 0 129.5 -5.5t62.5 -18.5 t24.5 -37.5t5.5 -78.5v-716q0 -233 -107.5 -336t-337.5 -103q-205 0 -298 99.5t-93 308.5v747q0 49 4 74t21.5 39t57.5 20.5t114 6.5v69q-63 -2 -144 -2q-82 0 -145 -2q-61 2 -139 2q-113 2 -140 2v-69z" />
<glyph unicode="V" horiz-adv-x="1478" d="M33 1352q49 0 74.5 -5.5t46 -20.5t37 -47t38.5 -91l445 -1188h137l461 1188q14 47 26.5 73.5t30 43t44 26.5t73.5 21v65q-49 -2 -111 -2q-63 0 -112 -2q-49 2 -111 2q-63 0 -113 2v-65q10 -2 27 -4q57 -6 93 -20.5t40 -51.5q0 -2 2 -10v-13q0 -27 -10 -65l-344 -983 l-352 983q-18 55 -19 94q0 37 34 49t97 17q27 2 39 4v65q-63 -2 -143 -2t-144 -2q-63 2 -143 2t-143 2v-65z" />
<glyph unicode="W" horiz-adv-x="2048" d="M31 1352q43 0 68.5 -5.5t44 -20.5t34 -48t31.5 -90l317 -1188h160l338 1249h4l324 -1249h159l342 1188q6 18 13 55q12 57 35.5 82t105.5 27v65q-47 -2 -106 -2t-107 -2q-47 2 -106 2t-107 2v-65q10 -2 27 -4q57 -6 93 -20.5t40 -51.5q0 -2 2 -10v-13q0 -27 -10 -65 l-244 -975h-4l-303 1200h-195l-321 -1204h-4l-228 979q-14 51 -14 86q0 43 29.5 56t87.5 20q16 2 24 2v65q-59 -2 -131 -2q-74 0 -133 -2q-59 2 -133 2t-133 2v-65z" />
<glyph unicode="X" horiz-adv-x="1478" d="M31 -4q57 2 129 2q70 0 127 2q55 -2 127 -2t127 -2v70l-17 2q-53 4 -93 14t-50 35q-4 8 -4 16q0 20 20 47l299 461l273 -383l2 -2q27 -39 43 -69.5t18 -61.5q0 -14 -16.5 -25.5t-41 -17.5t-46 -9t-45.5 -7h-9v-70q63 2 142 2q78 0 141 2q63 -2 141 -2t142 -2v70 q-84 6 -118 30.5t-87 98.5l-2 4l-416 589l264 351q8 10 27 35q72 98 122 133.5t159 44.5v65q-55 -2 -125 -2q-72 0 -127 -2q-55 2 -125 2q-72 0 -127 2v-65q53 0 98 -8.5t57 -36.5q0 -2 2 -7q2 -6 2 -10q0 -16 -16 -41l-260 -397l-219 322q-47 61 -62 100q-4 10 -4 20 q0 37 45 47.5t113 10.5h23v65q-66 -2 -148 -2t-147 -2q-66 2 -148 2q-84 0 -149 2v-65q94 0 144 -40t116 -136q23 -33 37 -54l284 -409l-415 -549q-41 -55 -80 -72.5t-127 -25.5v-70z" />
<glyph unicode="Y" horiz-adv-x="1478" d="M43 1352q104 -10 157.5 -58.5t137.5 -183.5q41 -66 65 -102l195 -310q35 -53 43 -79.5t8 -90.5v-323q0 -51 -9 -79t-30.5 -41t-57.5 -16t-112 -3v-70q70 2 150 2q123 2 151 2q29 0 152 -2q80 0 149 -2v70q-74 0 -110.5 3t-58 16t-30.5 41t-9 79v315q0 27 10 62.5t33 72.5 l286 455q10 16 37 61q53 90 96 130t131 51v65q-49 -2 -110 -2t-111 -2q-49 2 -110 2t-111 2v-65q27 0 48.5 -1t44 -8.5t37.5 -21.5t15 -39q0 -23 -10 -47.5t-26 -46.5l-281 -492l-309 510l-6 11q-23 35 -23 55v4v6q8 41 40 52.5t99 15.5q23 2 33 2v65q-68 -2 -149 -2 q-84 0 -152 -2q-68 2 -151 2q-84 0 -152 2v-65z" />
<glyph unicode="Z" horiz-adv-x="1366" d="M66 0h1210v416h-129l-4 -45q-10 -109 -18.5 -156t-29 -75.5t-62.5 -40t-122 -13.5h-608l938 1286v41h-1089v-362h108q2 16 10 73q10 70 19.5 106t31 57.5t66.5 30.5t129 11h479l-929 -1288v-41z" />
<glyph unicode="[" horiz-adv-x="681" d="M213 -256h369v68h-222v1646h222v68h-369v-1782z" />
<glyph unicode="\" horiz-adv-x="1241" d="M166 1526l772 -1546h147l-772 1546h-147z" />
<glyph unicode="]" horiz-adv-x="681" d="M102 -188v-68h369v1782h-369v-68h222v-1646h-222z" />
<glyph unicode="^" horiz-adv-x="1241" d="M104 582h144l373 667l370 -667h144l-447 831h-135z" />
<glyph unicode="_" horiz-adv-x="1024" d="M0 -217v-78h1024v78h-1024z" />
<glyph unicode="`" horiz-adv-x="681" d="M29 1360q0 -45 53 -74l321 -213h95l-310 324q-37 45 -77 45q-41 0 -60 -33q-23 -18 -22 -49z" />
<glyph unicode="a" horiz-adv-x="1024" d="M86 268q0 -158 82 -222t248 -64q152 0 256 96v-82q35 2 80 2t79 2q27 -2 82 -2t80 -2v65q-61 4 -90 9.5t-45 18.5t-21.5 39t-5.5 77v446q0 180 -74.5 251t-258.5 71q-63 0 -122 -9.5t-111 -33t-87 -66.5t-43 -108v-15l-2 -12q0 -76 66 -78q37 0 62.5 11.5t25.5 42.5 q0 109 32.5 153.5t153.5 44.5q90 0 140.5 -37t50.5 -116v-207q-33 0 -76 2h-86q-88 0 -159 -9.5t-129 -38t-93 -85t-35 -144.5zM262 264q0 72 20.5 115t58.5 63.5t87 26.5t123 6h113v-196q0 -123 -47.5 -172.5t-178.5 -49.5q-92 0 -134 56.5t-42 150.5z" />
<glyph unicode="b" d="M-12 1460q68 -2 102.5 -7t52 -19.5t22.5 -40t5 -78.5v-1335l172 67q61 -41 135 -54t172 -13q115 0 193 43t121 116.5t61 165.5t18 201q0 238 -91 352.5t-320 114.5q-84 0 -161 -29t-132 -86v668h-350v-66zM334 410v174q0 150 61.5 232.5t206.5 82.5q90 0 144.5 -39 t79 -103.5t29.5 -133t5 -166.5q0 -78 -11 -148.5t-40 -130t-83 -95.5t-136 -36q-86 0 -138.5 27.5t-78 76t-32.5 110t-7 149.5z" />
<glyph unicode="c" horiz-adv-x="1024" d="M94 481q0 -262 96.5 -381.5t350.5 -119.5q113 0 200.5 17t176.5 62v240h-103q0 -2 -4 -43q-8 -59 -16.5 -94t-30 -61.5t-66.5 -41t-118 -14.5q-100 0 -162 35t-92.5 94t-40 134t-9.5 173t9.5 171t40 131.5t92 91t160.5 32.5q76 0 121.5 -17.5t67 -46t29 -59t11.5 -79.5 q2 -33 4 -43h107v217q-27 27 -72 45t-98.5 29.5t-104.5 15.5t-92 4q-248 0 -352.5 -120t-104.5 -372z" />
<glyph unicode="d" horiz-adv-x="1251" d="M125 436q0 -213 106.5 -334.5t315.5 -121.5q96 0 167.5 32.5t133.5 104.5v-121q37 2 84 2t84 2q41 -2 92 -2q49 0 90 -2v65q-66 0 -102.5 6.5t-53 21.5t-21.5 42t-5 76v1319h-350v-66q68 -2 102.5 -7t52 -19.5t22.5 -40t5 -78.5v-455q-66 61 -134.5 87t-160.5 26 q-119 0 -203 -41t-133 -115t-70.5 -169t-21.5 -212zM307 432q0 102 6 175t31 140.5t81 109.5t150 42q92 0 146.5 -28.5t81 -79t34 -114t7.5 -159.5v-139q0 -156 -60.5 -242t-210.5 -86q-76 0 -127 34t-81.5 89t-44 121.5t-13.5 136.5z" />
<glyph unicode="e" horiz-adv-x="1024" d="M96 530q0 -125 18.5 -223t63.5 -172t128 -114.5t208 -40.5q168 0 275.5 74.5t130.5 234.5q0 23 -16.5 29t-47.5 6q-37 0 -53.5 -5.5t-16.5 -27.5q-2 -6 -8 -35q-10 -45 -21.5 -79t-35 -62.5t-67.5 -47t-111 -18.5q-92 0 -146.5 38t-79 98.5t-30.5 127t-6 160.5h655v27 l2 26q0 213 -95 330t-306 117q-209 0 -325 -116t-116 -327zM281 543q0 80 10 144.5t35.5 113.5t72.5 77.5t117 28.5q68 0 114 -24.5t72.5 -68.5t38 -99.5t11.5 -120.5q0 -12 -2 -25v-26h-469z" />
<glyph unicode="f" horiz-adv-x="681" d="M78 -4q23 0 133 2q74 0 133 2q27 0 141 -2q74 0 140 -2v65q-74 0 -111 5.5t-55.5 19.5t-24.5 41t-6 76v671h248v78h-248v308q0 96 21.5 147t97.5 55q31 0 50 -13t27.5 -31.5t11.5 -35t3 -32.5v-7q0 -4 -2 -12q-2 -12 -2 -16q0 -16 7 -26.5t24 -10.5h4h6h74q29 0 37 17.5 t8 56.5q-12 96 -71.5 135t-162.5 39q-147 0 -224 -86t-77 -236v-252h-176v-78h176v-671q0 -92 -24.5 -112.5t-120.5 -27.5q-25 -2 -37 -2v-65z" />
<glyph unicode="g" horiz-adv-x="1024" d="M41 -252q0 -78 43 -130t111.5 -79.5t143.5 -39t148 -11.5q84 0 168 23.5t155 71.5t113 118t42 160q0 86 -27 141t-75 86t-112.5 43t-148.5 12q-53 0 -160 -6q-59 -4 -94 -6q-59 0 -88 32t-29 87q0 45 17 100q20 -14 68.5 -28.5t132.5 -20.5q84 0 159.5 18.5t135 58.5 t93 105.5t33.5 153.5q0 137 -84 240l172 -7l-4 88l-24 5l-217 -25q-111 35 -242 35q-166 0 -274.5 -88t-108.5 -252q0 -145 109 -248q-43 -109 -43 -205q0 -98 45 -180q-82 -51 -120 -106.5t-38 -145.5zM178 -223q0 47 21.5 98t58.5 113h317h23q16 2 25 2q59 0 104 -16.5 t72 -61.5q23 -51 22 -100q0 -57 -29.5 -105.5t-78.5 -82.5t-107.5 -51t-111.5 -17q-109 0 -195 41t-115 133q-6 23 -6 47zM260 639q0 127 51 196.5t168 69.5q121 0 169 -72.5t48 -193.5q0 -127 -50 -197.5t-167 -70.5t-168 70.5t-51 197.5z" />
<glyph unicode="h" horiz-adv-x="1251" d="M43 -4q23 0 133 2q74 0 133 2q59 -2 133 -2q111 -2 133 -2v65q-66 0 -102.5 6.5t-53 21.5t-21.5 42t-5 76v373q0 147 55.5 225t198.5 78q70 0 112 -21.5t63.5 -61.5t27.5 -94.5t6 -136.5v-362q0 -51 -6 -79t-20.5 -40t-38 -16t-80.5 -9q-4 0 -37 -2v-65q23 0 133 2 q74 0 133 2q59 -2 133 -2q111 -2 133 -2v65q-66 0 -102.5 6.5t-53 21.5t-21.5 42t-5 76v414q0 94 -10 156.5t-40 106.5t-88.5 66.5t-154.5 22.5q-137 -6 -213 -43t-119 -96h-4v692h-352v-66q66 0 101.5 -6t53 -21.5t22.5 -41t5 -76.5v-1108q0 -51 -6 -79t-20.5 -40t-38 -16 t-80.5 -9q-4 0 -37 -2v-65z" />
<glyph unicode="i" horiz-adv-x="681" d="M74 -4q176 4 266 4t266 -4v65q-68 0 -103.5 6.5t-52 21.5t-21.5 41t-5 75v747h-350v-63h4q70 -6 101.5 -11.5t48 -17.5t22.5 -37.5t6 -79.5v-538q0 -49 -5 -75t-21.5 -41t-52.5 -21.5t-103 -6.5v-65zM217 1309q0 -57 31 -96t84 -39t83.5 38.5t30.5 96.5q0 57 -30.5 96 t-83.5 39t-84 -39t-31 -96z" />
<glyph unicode="j" horiz-adv-x="569" d="M2 -477v-35q121 14 199 55t121 106.5t60 155t17 211.5v936h-350v-65q70 -2 103.5 -7.5t51 -18.5t22.5 -38.5t5 -79.5v-694v-4q-4 -152 -10 -228.5t-26.5 -135t-65.5 -96.5t-127 -62zM176 1309q0 -57 31 -96t84 -39t84 38.5t31 96.5q0 57 -31 96t-84 39t-84 -39t-31 -96z " />
<glyph unicode="k" d="M45 -4q23 0 133 2q74 0 133 2q59 -2 133 -2q111 -2 134 -2v65q-68 0 -104 6.5t-52 21.5t-21.5 41t-5.5 75v278q109 -94 205 -203.5t236 -283.5q33 2 75 2q41 0 74 2q33 -2 76 -2q41 0 74 -2v67q-37 0 -64 7.5t-58.5 30t-76.5 67.5t-115 119l-278 301q27 27 86 88 q129 129 204.5 175t210.5 46v55h-342v-6q2 -6 3 -6q0 -20 -9.5 -43t-23.5 -49l-4 -6q-31 -61 -84.5 -115.5t-141.5 -132.5q-41 -37 -47 -43v975h-350v-66q70 -2 103.5 -7t51 -18.5t22.5 -39t5 -78.5v-1112q0 -47 -5 -71.5t-21.5 -40t-53 -23t-102.5 -9.5v-65z" />
<glyph unicode="l" horiz-adv-x="681" d="M76 -4q176 4 266 4t266 -4v65q-68 0 -103.5 6.5t-52 21.5t-21.5 41t-5 75v1321h-350v-66q66 0 102.5 -6t53 -20.5t21.5 -40t5 -74.5v-1116q0 -49 -5 -75t-22.5 -40t-53.5 -20.5t-101 -6.5v-65z" />
<glyph unicode="m" horiz-adv-x="1820" d="M45 -4q25 0 131 2q72 0 131 2q57 -2 125 -2q100 -2 125 -2v65q-113 0 -139.5 28t-26.5 118v377q0 150 48 222.5t196 78.5q68 0 106.5 -21.5t56 -58.5t22.5 -81t5 -114v-403q0 -88 -28.5 -116t-134.5 -30v-65q25 0 122 2q70 0 125 2q55 -2 123 -2q98 -2 123 -2v65 q-109 0 -135.5 28t-26.5 118v391q0 141 54.5 213t191.5 72q59 0 97 -19.5t59 -54.5q32 -53 32 -169v-7v-426q0 -88 -30.5 -116t-134.5 -30v-65q25 0 124 2q68 0 125 2q59 -2 131 -2q104 -2 130 -2v65q-63 0 -99.5 6.5t-52.5 22.5t-20.5 41t-4.5 76v469q0 158 -64.5 227.5 t-223.5 69.5q-102 0 -186.5 -38t-143.5 -116q-49 94 -112.5 124t-157.5 30q-100 0 -177 -31t-149 -104v114h-336v-59q68 -2 100.5 -7t50 -19.5t22.5 -41t5 -77.5v-541q0 -90 -31.5 -118t-146.5 -28v-65z" />
<glyph unicode="n" horiz-adv-x="1251" d="M47 -4q23 0 133 2q74 0 133 2q57 -2 129 -2q104 -2 129 -2v65q-63 0 -98 7.5t-51 22.5t-20.5 41t-4.5 75v373q0 152 52.5 227.5t197.5 75.5q76 0 119 -23.5t62.5 -65.5t23.5 -91.5t4 -133.5v-362q0 -51 -6 -79t-20.5 -40t-40 -16t-82.5 -9q-10 0 -27 -2v-65q25 0 131 2 q72 0 129 2q59 -2 131 -2q106 -2 131 -2v65q-66 0 -100.5 6.5t-51 21.5t-21.5 41t-5 77v414q0 94 -10 156.5t-40 106.5t-88.5 66.5t-154.5 22.5q-115 0 -180.5 -27.5t-163.5 -107.5v114h-340v-61q70 -2 103.5 -7t51 -18.5t22.5 -40t5 -80.5v-538q0 -51 -6 -79t-20.5 -40 t-38 -16t-80.5 -9q-4 0 -37 -2v-65z" />
<glyph unicode="o" d="M104 477q0 -246 105.5 -370.5t359.5 -126.5q254 2 359.5 126.5t105.5 370.5q0 254 -112.5 375t-352.5 121t-352.5 -121t-112.5 -375zM289 477q0 98 7 168t34.5 128t85 94t153.5 36t153.5 -34.5t85.5 -94t35 -129.5t7 -168t-7 -168.5t-34 -129t-85 -94.5t-155 -36 q-96 0 -153.5 36t-85 95.5t-34.5 129t-7 167.5z" />
<glyph unicode="p" horiz-adv-x="1251" d="M61 -451v-65q23 0 134 2q74 0 133 2q53 -2 147 -2q94 -2 146 -2v65q-76 0 -115 4.5t-59.5 17.5t-28.5 41t-8 81v391q61 -51 121.5 -77.5t134.5 -26.5q246 0 352 129t106 383q0 106 -21.5 193t-68.5 151.5t-125 100.5t-186 36q-102 0 -186 -34t-136 -110v123h-340v-65 q66 0 102 -6.5t52 -21.5t21.5 -40.5t5.5 -75.5v-1050q0 -94 -24.5 -114.5t-119.5 -27.5q-2 0 -37 -2zM410 285v364q0 113 68.5 179.5t187.5 66.5q88 0 143 -33t84 -89t38 -125.5t9 -158.5q0 -102 -7 -173.5t-35 -131t-87 -94.5t-158 -35q-109 0 -176 61.5t-67 168.5z" />
<glyph unicode="q" d="M82 459q0 -98 21.5 -185.5t67.5 -153t121 -103t177 -37.5q98 0 178 25.5t139 86.5v-399q0 -94 -26 -117q-16 -12 -39 -16t-80 -9q-6 0 -37 -2v-65q23 0 133 2q74 0 133 2q59 -2 134 -2q111 -2 133 -2v65q-68 0 -104 6.5t-52 21.5t-21.5 41t-5.5 75v1280l-174 -74l-28 12 q-78 35 -125 48.5t-119 13.5q-117 0 -199 -38t-132 -106.5t-72.5 -162t-22.5 -207.5zM268 459q0 88 7.5 157.5t32 134t77.5 104.5t139 40q123 0 190.5 -55.5t71.5 -173.5v-316q-4 -154 -60 -224.5t-208 -70.5q-82 0 -133 36t-75.5 94.5t-33 125t-8.5 148.5z" />
<glyph unicode="r" horiz-adv-x="796" d="M31 -4q23 0 133 2q74 0 133 2q29 0 143 -2q74 0 142 -2v65q-74 0 -113 5.5t-58.5 19.5t-24.5 41t-5 80v424q0 39 5 80t19.5 78.5t43 62.5t71.5 25q80 0 86 -86v-13q4 -47 16.5 -66.5t59.5 -19.5q51 0 63.5 20.5t16.5 71.5v17q0 84 -50 128t-134 44q-61 0 -113.5 -33 t-93.5 -88v100h-340v-61q70 -2 103.5 -7t51 -18.5t22.5 -40t5 -80.5v-538q0 -51 -5 -78t-23.5 -41t-53.5 -19.5t-100 -7.5v-65z" />
<glyph unicode="s" horiz-adv-x="909" d="M102 37q102 -57 240 -57q92 0 171 11t143.5 43t104.5 93t40 158q0 70 -25.5 117t-68.5 76.5t-91.5 46t-126.5 36.5q-57 14 -92 27q-55 18 -88 56t-33 77q0 94 39 136t154 46q111 0 138.5 -38t35.5 -144q2 -20 4 -45h109v246q-55 27 -122 39t-134 12q-170 0 -272.5 -73 t-102.5 -234q0 -59 21.5 -100.5t58.5 -68t79 -43t103 -32.5q14 -4 23 -6q121 -31 180 -67t59 -118q0 -92 -70.5 -139t-166.5 -47q-68 0 -107 16.5t-58.5 44t-24.5 60.5t-9 86q-2 35 -4 57h-107v-272z" />
<glyph unicode="t" horiz-adv-x="681" d="M39 874h160v-579q0 -80 6 -131t26.5 -93t65.5 -66.5t121 -24.5q55 0 124.5 17t116.5 42l-24 57l-35 -16q-55 -20 -98 -21q-47 0 -75 20.5t-40 52.5t-16 69t-4 84v589h231v78h-231v348l-168 -71v-277h-160v-78z" />
<glyph unicode="u" horiz-adv-x="1251" d="M39 891q68 0 103.5 -6t52 -21.5t21.5 -41t5 -74.5v-510q0 -143 79 -200.5t228 -57.5q80 0 176.5 37.5t141.5 97.5v-119q37 2 84 2q45 0 82 2q16 0 92 -2q49 0 92 -2v65q-68 0 -103.5 6.5t-52 21.5t-21.5 41t-5 75v747h-340v-61q117 0 144.5 -26.5t27.5 -116.5v-332 q0 -86 -7.5 -144.5t-31 -105.5t-74.5 -73.5t-137 -26.5q-70 0 -113 20t-62.5 57t-25.5 84t-6 119v606h-350v-61z" />
<glyph unicode="v" d="M29 895q88 0 114.5 -23.5t61.5 -111.5q16 -43 20 -51l260 -709h144l272 698q2 6 4 9q45 113 78 148.5t115 39.5v61q-43 -2 -94 -2q-53 0 -97 -2q-43 2 -94 2q-53 0 -96 2v-61q61 0 97 -12.5t36 -59.5q0 -18 -12 -47l-226 -645l-241 672q-6 23 -6 37q4 35 36.5 44t87.5 9 q20 2 27 2v61q-55 -2 -121 -2q-68 0 -123 -2q-55 2 -120 2q-68 0 -123 2v-61z" />
<glyph unicode="w" horiz-adv-x="1705" d="M33 891l16 -2q59 -6 85 -15.5t45.5 -40t35.5 -79.5t72 -230l157 -524h152l264 770l227 -770h148l250 721q18 55 30.5 81.5t30 45t46 29t77.5 16.5v63q-43 -2 -98 -2t-98 -2q-43 2 -99 2q-57 0 -100 2v-63q12 -2 41 -6q47 -4 72.5 -15.5t27.5 -44.5q0 -27 -8 -53 l-188 -631l-234 809h-143l-271 -800l-145 462l-8 27q-16 59 -26.5 106.5t-10.5 77.5q4 39 29.5 51.5t107.5 16.5v63q-53 -2 -121 -2t-121 -2q-55 2 -120 2q-68 0 -123 2v-65z" />
<glyph unicode="x" d="M20 -4q37 2 82 2t82 2q37 -2 82 -2t82 -2v65q-35 6 -35 29q0 16 19 37l213 270l192 -262q31 -33 31 -51q0 -25 -39 -27v-61q41 2 94 2q51 0 92 2q41 -2 95 -2q51 0 92 -2v65q-72 6 -106.5 34t-86.5 98l-264 346l195 243q43 57 95 83t132 26v65q-37 -2 -82 -2t-82 -2 q-37 2 -82 2t-82 2v-65q18 -2 30.5 -9.5t12.5 -19.5q0 -8 -4 -16q-25 -41 -82 -119l-92 -127l-194 250q-6 6 -7 14q0 10 11.5 18.5t25.5 8.5v65q-45 -2 -100 -2t-100 -2q-45 2 -101 2q-55 0 -100 2v-65q88 0 131 -28.5t102 -104.5q10 -14 25 -33l203 -264l-236 -289 q-33 -37 -53.5 -55.5t-38.5 -28.5t-38.5 -13t-63.5 -7q-39 -4 -50 -7v-65z" />
<glyph unicode="y" d="M33 895q57 0 88 -5t48 -18.5t29.5 -37t34.5 -78.5q16 -43 19 -47l260 -709h66q-2 -8 -15 -45q-20 -66 -39.5 -120t-49.5 -111.5t-66.5 -94.5t-77.5 -37q-4 0 -11 2h-8q-31 6 -80 52q-27 23 -45 35t-41 12t-49 -17q-23 -14 -22 -71q12 -63 57 -90t109 -27q82 0 144 39 t106.5 101.5t72 130t64.5 167.5q16 47 28 80l273 694v2q43 111 71.5 149t98.5 44v61q-41 -2 -92 -2q-53 0 -95 -2q-43 2 -94 2t-94 2v-61q74 0 114 -13.5t40 -58.5q0 -18 -13 -47l-225 -641l-242 668q-6 23 -6 37q2 31 31 41t78 12q12 2 18 2v61q-53 -2 -121 -2t-121 -2 q-55 2 -120 2q-68 0 -123 2v-61z" />
<glyph unicode="z" horiz-adv-x="1024" d="M76 0h870v299h-104q-8 -127 -38 -174t-95 -47h-410l647 813v61h-809v-288h107l2 22q8 100 24.5 144t69.5 44h373l-637 -811v-63z" />
<glyph unicode="{" horiz-adv-x="681" d="M119 631q96 -27 125.5 -77t29.5 -163v-334q0 -184 69 -248.5t249 -64.5v4q-92 18 -131 80.5t-39 173.5v344q0 129 -32 192.5t-134 90.5v4q100 27 133 87t33 181v365q0 115 37 174t133 82v4q-168 0 -243 -57.5t-75 -231.5v-369q0 -102 -31.5 -155.5t-123.5 -81.5z" />
<glyph unicode="|" horiz-adv-x="1241" d="M553 -20h135v1546h-135v-1546z" />
<glyph unicode="}" horiz-adv-x="681" d="M90 -252v-4q180 0 249 64.5t69 248.5v334q0 113 29.5 163t125.5 77q-92 29 -123.5 82t-31.5 155v369q0 174 -75 231.5t-243 57.5v-4q96 -23 133 -82.5t37 -173.5v-365q0 -121 33 -181.5t133 -86.5v-4q-102 -27 -134 -90.5t-32 -192.5v-344q0 -111 -39 -173t-131 -81z" />
<glyph unicode="~" horiz-adv-x="1241" d="M104 426l72 -82l4 8q51 86 96.5 133t116.5 47q35 0 69 -10t83 -33q25 -8 26 -10q20 -8 33 -14q84 -35 143.5 -55.5t100.5 -20.5q92 0 165.5 64.5t123.5 158.5l-72 82q-35 -68 -92.5 -122t-122.5 -54q-35 0 -83 18.5t-124 51.5l-8 4l-2 2q-82 35 -136.5 52.5t-101.5 17.5 q-96 0 -162.5 -63.5t-128.5 -174.5z" />
<glyph unicode="&#xa1;" horiz-adv-x="681" d="M229 817q0 -57 31 -96t84 -39t84 39t31 96t-31 96t-84 39t-84 -39t-31 -96zM231 -371q0 -78 31 -109.5t82 -31.5t82 31.5t31 109.5q0 6 -2 17v20l-66 746v6q-2 33 -10 61.5t-35 67.5q-27 -37 -35 -65.5t-10 -63.5v-6l-66 -746v-20q-2 -10 -2 -17z" />
<glyph unicode="&#xa2;" d="M152 481q0 -215 62 -331.5t222 -151.5l-74 -238h72l72 226q41 -6 92 -6q102 0 193.5 15t169.5 56l14 8v240h-103q0 -2 -4 -43q-8 -59 -16 -94t-29.5 -61.5t-66.5 -41t-119 -14.5q-63 0 -109 14l254 815q43 -25 56.5 -51t21.5 -73v-5l8 -83h107v217q-49 49 -168 73l61 197 h-71l-58 -186q-61 10 -131 10q-248 0 -352 -120t-104 -372zM334 481q0 98 9 171t40 131.5t92.5 91t159.5 32.5q39 0 84 -10l-254 -811q-80 49 -105.5 145.5t-25.5 249.5z" />
<glyph unicode="&#xa3;" d="M-8 39q4 -49 51 -53q33 0 83 33.5t81 64.5q74 0 153.5 -13.5t182.5 -35.5l16 -4q106 -25 162.5 -36t101.5 -11q57 0 109.5 8t114.5 33v280h-64q-8 -104 -39 -134t-92 -30q-72 0 -217 11q-145 10 -219 10q-55 0 -166 -12q57 57 93 109t59.5 107.5t36 115t24.5 147.5h368 v78h-362l2 38q4 102 12.5 186.5t34 169.5t76.5 141t135 56q76 0 110.5 -40.5t34.5 -116.5q0 -6 3 -23q0 -37 6 -55q6 -16 23.5 -20.5t41.5 -4.5h33q33 0 46 17.5t13 54.5q0 129 -84 193.5t-217 64.5q-82 0 -147.5 -28.5t-126.5 -88.5q-51 -49 -84 -112.5t-50.5 -135 t-25.5 -139t-14 -157.5h-240v-78h234q0 -66 -4.5 -130.5t-15.5 -130t-32.5 -125t-54.5 -104.5q-55 -4 -103 -15t-61 -30q-23 -23 -22 -55z" />
<glyph unicode="&#xa4;" d="M51 295l105 -105l108 109q131 -106 309 -106q84 0 162 27.5t139 78.5l109 -109l102 105l-108 108q51 61 76.5 139.5t25.5 159.5q0 84 -26.5 163t-79.5 141l110 106l-104 107l-109 -109q-61 49 -137 74.5t-158 25.5q-84 0 -164.5 -26.5t-144.5 -77.5l-110 113l-105 -107 l111 -111q-51 -59 -76 -138t-25 -165q0 -162 99 -295zM227 698q0 72 27 135.5t76 111.5t111 73.5t134 25.5q68 0 130.5 -26.5t108.5 -74.5t72.5 -110.5t26.5 -130.5q0 -70 -25.5 -132t-72.5 -109t-109.5 -75t-132.5 -28t-133 26t-111 73t-75 108.5t-27 132.5z" />
<glyph unicode="&#xa5;" d="M12 1288q84 -6 130 -58t112 -179q33 -63 47 -90l117 -220h-250v-77h289q29 -47 35 -74t6 -94h-330v-78h330v-223q0 -49 -3 -72t-18.5 -36t-48.5 -18.5t-98 -5.5v-67q57 2 121 2q98 2 120 2q23 0 121 -2q66 0 121 -2v67q-61 0 -94 5.5t-48.5 18.5t-19.5 38t-4 70v223h330 v78h-330q0 39 6 69.5t27 59.5l20 39h277v77h-238l172 318l15 33q57 123 90 159.5t108 36.5v68q-39 -2 -88 -2q-51 0 -90 -2q-39 2 -88 2q-51 0 -90 2v-68q117 0 117 -67q0 -35 -29 -88l-227 -469l-203 393q-2 4 -20 41q-47 98 -48 127q0 31 31 45t107 18v68q-53 -2 -121 -2 t-121 -2q-53 2 -121 2t-121 2v-68z" />
<glyph unicode="&#xa6;" horiz-adv-x="1241" d="M553 -20h135v616h-135v-616zM553 909h135v617h-135v-617z" />
<glyph unicode="&#xa7;" d="M133 627q0 -53 22.5 -95.5t59.5 -76t75 -56t105 -59.5q39 -20 64 -35l184 -108q68 -51 99.5 -102.5t31.5 -125.5q0 -102 -64.5 -161.5t-166.5 -59.5q-96 0 -145.5 58.5t-49.5 146.5q0 4 2 16v17q0 25 -24.5 37t-55.5 12q-25 0 -43 -8.5t-18 -24.5v-18l-2 -19 q0 -145 89 -209.5t253 -66.5q164 0 264 91t100 253q0 63 -20.5 118.5t-54.5 88.5q80 45 118.5 104t38.5 145q0 59 -21.5 106.5t-57 83.5t-76.5 61.5t-105 60.5l-14 8q-199 106 -277.5 177t-78.5 181q0 90 61 152.5t152 62.5q100 0 143 -59t49 -162q0 -14 19.5 -23.5 t46.5 -9.5q31 0 52 10.5t21 30.5q-2 76 -29.5 129.5t-72.5 85t-100.5 46t-116.5 14.5q-184 -2 -276.5 -94.5t-92.5 -251.5q0 -117 86 -207q-92 -41 -133 -105.5t-41 -158.5zM250 694q0 53 26.5 91t71.5 61q25 -14 64 -41q41 -29 63 -43l195 -111q6 -2 37 -20q86 -49 134 -93 t48 -108q0 -45 -15.5 -69.5t-52.5 -59.5l-22 -22l-137 92l-304 178q-53 31 -80.5 62.5t-27.5 82.5z" />
<glyph unicode="&#xa8;" horiz-adv-x="681" d="M25 1282q0 -43 31.5 -75.5t76.5 -32.5t77 32.5t32 75.5q0 45 -32 78t-77 33t-76.5 -33t-31.5 -78zM440 1282q0 -45 34 -76.5t77 -31.5t75.5 32.5t32.5 75.5t-31.5 77t-76.5 34t-78 -33t-33 -78z" />
<glyph unicode="&#xa9;" horiz-adv-x="1529" d="M49 709q0 -147 55.5 -280.5t153.5 -235t229.5 -157.5t276.5 -56q147 0 278.5 56t230.5 157.5t154.5 234.5t55.5 281q0 150 -55.5 284.5t-154.5 236t-230.5 158t-278.5 56.5q-145 0 -275.5 -56.5t-229.5 -159t-154.5 -236.5t-55.5 -283zM162 709q0 127 47 239.5t130 199.5 t192.5 135t232.5 48t233.5 -48t194.5 -134t131 -199.5t47 -240.5q0 -125 -47 -238t-131 -198t-194.5 -133t-233.5 -48q-121 0 -230.5 48t-193.5 133t-131 198t-47 238zM383 698q0 -174 104.5 -287.5t276.5 -113.5q106 0 198.5 48t129.5 140l-54 23l-16 -29 q-29 -49 -84 -75.5t-115 -26.5q-123 0 -193.5 99t-70.5 261q0 123 63.5 214t180.5 91q86 0 136 -54t62 -144h66v213q-68 27 -133.5 42t-147.5 15q-180 0 -291.5 -115.5t-111.5 -300.5z" />
<glyph unicode="&#xaa;" horiz-adv-x="614" d="M12 651h590v78h-590v-78zM12 991q0 -170 215 -170q96 0 166 58v-50h209v39q-70 0 -87 17.5t-17 68.5v269q0 111 -51.5 150.5t-165.5 39.5q-90 0 -159 -28.5t-79 -102.5q0 -59 43 -59q25 0 41 6t16 24q-4 14 -4 29q0 45 35 67.5t90 22.5q59 0 92 -21.5t33 -70.5v-123h-49 q-47 2 -59 2q-57 0 -102.5 -6t-83.5 -23.5t-60.5 -51.5t-22.5 -87zM127 989q0 129 149 129h19q10 -2 20 -2h74v-119v-10l2 -10q0 -57 -41 -82t-108 -29q-59 0 -87 34t-28 89z" />
<glyph unicode="&#xab;" d="M195 481l313 -383h80v13l-252 397l252 401v13h-80l-313 -385v-56zM555 481l313 -383h80v13l-252 397l252 401v13h-80l-313 -385v-56z" />
<glyph unicode="&#xac;" horiz-adv-x="1241" d="M104 651h902v-422h131v553h-1033v-131z" />
<glyph unicode="&#xad;" horiz-adv-x="681" d="M90 432h502v152h-502v-152z" />
<glyph unicode="&#xae;" horiz-adv-x="1529" d="M49 715q0 -150 55.5 -285t154.5 -236.5t231.5 -157.5t277.5 -56t276.5 56t229.5 158.5t153.5 236.5t55.5 284q0 147 -55.5 280t-153.5 234.5t-229.5 158t-276.5 56.5t-277.5 -56.5t-231.5 -158t-154.5 -234.5t-55.5 -280zM162 715q0 125 47 237.5t132 197.5t195.5 133 t231.5 48q123 0 232.5 -48t193.5 -133t130 -197.5t46 -237.5q0 -127 -46 -241t-130 -200t-193.5 -134t-232.5 -48t-233.5 48t-194.5 134t-131 200t-47 241zM436 338h322v43q-8 0 -25 2q-39 0 -50 9t-13 52v248h30q41 0 61.5 -5t37.5 -21q10 -10 20 -32t35 -81 q29 -63 50.5 -107.5t41.5 -72.5q12 -14 22.5 -20.5t28.5 -10.5l13 -4h141v43q-45 4 -67.5 32.5t-51.5 92.5q-10 25 -14 33l-2 4q-33 74 -68 120t-90 58v4q86 12 143.5 67.5t57.5 141.5q0 109 -67.5 149.5t-239.5 40.5h-314v-43h31q39 -2 48 -11t9 -48v-586q0 -35 -9 -43 t-44 -12h-8h-29v-43zM670 745v254q0 41 6 58.5t29 17.5h43q168 0 167 -160q0 -96 -54 -133t-152 -37h-39z" />
<glyph unicode="&#xaf;" horiz-adv-x="681" d="M55 1155h574v121h-574v-121z" />
<glyph unicode="&#xb0;" horiz-adv-x="819" d="M102 993q0 -61 24 -117.5t67 -99.5t99 -66.5t118 -23.5q61 0 117.5 23.5t99.5 65.5t66.5 98.5t23.5 119.5q0 61 -23.5 117.5t-66.5 99.5t-99.5 66.5t-117.5 23.5t-117.5 -23.5t-99.5 -66.5t-67 -98t-24 -119zM184 993q0 94 65.5 160t158.5 66q94 0 160.5 -67t66.5 -159 q0 -94 -66.5 -159.5t-158.5 -65.5q-94 0 -160 65.5t-66 159.5z" />
<glyph unicode="&#xb1;" horiz-adv-x="1241" d="M104 0h1033v131h-1033v-131zM104 582h451v-322h131v322h451v131h-451v319h-131v-319h-451v-131z" />
<glyph unicode="&#xb2;" horiz-adv-x="681" d="M72 520h538v221h-47l-4 -24q-6 -53 -23.5 -71.5t-82.5 -18.5h-289l133 116q14 12 41 35q57 47 96 81t77 78t62.5 91t24.5 92q0 94 -73.5 137t-182.5 43q-100 0 -173 -36.5t-79 -120.5v-10v-13q0 -23 5 -36t20 -13h47q20 0 26.5 11.5t6.5 41.5q2 10 4 19q10 47 34.5 70.5 t102.5 23.5q55 0 80.5 -33t25.5 -94q0 -84 -63.5 -165t-175.5 -185l-19 -19l-112 -110v-111z" />
<glyph unicode="&#xb3;" horiz-adv-x="681" d="M74 680q2 -78 59 -125t172 -47q141 0 222 50t81 177q0 78 -43 130.5t-125 66.5v4q70 16 108 62t38 112q0 96 -70 143t-178 47q-115 0 -180.5 -41.5t-65.5 -140.5q0 -29 29 -28h41q33 0 33 24l4 21q2 59 27.5 87.5t82.5 28.5q4 0 10 -2h13q68 -6 89 -39.5t21 -103.5 q0 -92 -27.5 -121t-119.5 -35q-20 0 -57 4v-65q6 2 18 4q41 8 59 8q88 0 116 -38t28 -130q0 -88 -32 -130t-124 -42q-74 0 -94.5 27.5t-20.5 73.5q0 14 -2 18q0 29 -6 40t-35 11h-30q-27 0 -34 -13t-7 -38z" />
<glyph unicode="&#xb4;" horiz-adv-x="681" d="M184 1073h95l321 213q53 29 53 74q0 31 -22 49q-18 33 -58 33q-43 0 -79 -45z" />
<glyph unicode="&#xb5;" horiz-adv-x="1251" d="M39 891q68 0 103.5 -6t52 -21.5t21.5 -41t5 -74.5v-1018q0 -98 27.5 -138.5t68.5 -40.5q37 0 70 29t33 96q0 25 -6 54l-33 266q45 -10 80 -13t67 -3q80 0 176.5 37.5t141.5 97.5v-119q37 2 84 2q45 0 82 2q16 0 92 -2q49 0 92 -2v65q-68 0 -103.5 6.5t-52 21.5t-21.5 41 t-5 75v747h-340v-61q117 0 144.5 -26.5t27.5 -116.5v-332q0 -86 -7.5 -144.5t-31 -105.5t-74.5 -73.5t-137 -26.5q-70 0 -113 20t-62.5 57t-25.5 84t-6 119v606h-350v-61z" />
<glyph unicode="&#xb6;" horiz-adv-x="1286" d="M102 1024q0 -195 107.5 -298t290.5 -103l73 6v-852h-157v-78h727v78h-131v1566h129v70h-518q-156 0 -256.5 -22.5t-157.5 -68.5t-82 -119t-25 -179zM379 944v141q0 129 39 193.5t155 64.5v-655q-59 0 -99 20.5t-60.5 55.5t-27.5 80t-7 100zM702 -223v1566h181v-1566h-181 z" />
<glyph unicode="&#xb7;" horiz-adv-x="569" d="M156 520q0 -51 39 -90t90 -39t89 39t38 90t-38 89t-89 38t-90 -38t-39 -89z" />
<glyph unicode="&#xb8;" horiz-adv-x="1024" d="M299 -389q86 -33 176 -33h10q8 -2 13 -2q76 0 151.5 49t75.5 125q-2 66 -46 105t-118 39q-31 0 -65 -9l41 115h-70l-76 -182l15 -13q39 12 73 13q92 0 92 -72q-2 -47 -34.5 -70.5t-83.5 -23.5q-39 0 -121 20z" />
<glyph unicode="&#xb9;" horiz-adv-x="681" d="M78 1096q53 12 103 42.5t118 82.5l12 8v-574q0 -33 -4 -48t-18.5 -23.5t-45 -10.5t-98.5 -2v-41q100 2 228 2q125 0 233 -2v41q-63 0 -92 3.5t-43 10.5t-17 22.5t-3 47.5v645h-127q-55 -45 -113.5 -80.5t-132.5 -56.5v-67z" />
<glyph unicode="&#xba;" horiz-adv-x="684" d="M39 651h606v78h-606v-78zM39 1116q0 -145 69.5 -220t233.5 -77q166 2 234.5 77t68.5 220q0 152 -73.5 224.5t-229.5 72.5t-229.5 -72.5t-73.5 -224.5zM160 1116q0 57 5 100.5t22.5 78t55.5 56t99 21.5q63 0 100 -21.5t54.5 -56t22.5 -77.5t5 -101q0 -57 -5 -100 t-22.5 -78t-54 -56.5t-100.5 -21.5q-61 0 -99 21.5t-55.5 56.5t-22.5 78t-5 100z" />
<glyph unicode="&#xbb;" d="M180 94h80l313 385v58l-313 381h-80v-13l252 -397l-252 -402v-12zM541 94h80l313 385v58l-313 381h-80v-13l252 -397l-252 -402v-12z" />
<glyph unicode="&#xbc;" horiz-adv-x="1708" d="M72 1096q53 12 103 42.5t118 82.5l12 8v-574q0 -33 -4 -48t-18.5 -23.5t-45 -10.5t-98.5 -2v-41q100 2 228 2q125 0 233 -2v41q-63 0 -92 3.5t-43 10.5t-17.5 22.5t-3.5 47.5v645h-127q-55 -45 -113.5 -80.5t-131.5 -56.5v-67zM465 0h104l793 1300h-102zM993 211h379v-90 q0 -55 -26.5 -70.5t-126.5 -15.5v-39q92 2 206 2q117 0 211 -2v39q-94 0 -115.5 13t-21.5 73v90h125l12 90h-137v465h-139q-88 -123 -179 -243t-188 -242v-70zM1104 301l268 371v-371h-268z" />
<glyph unicode="&#xbd;" horiz-adv-x="1708" d="M72 1096q53 12 103 42.5t118 82.5l12 8v-574q0 -33 -4 -48t-18.5 -23.5t-45 -10.5t-98.5 -2v-41q100 2 228 2q125 0 233 -2v41q-63 0 -92 3.5t-43 10.5t-17.5 22.5t-3.5 47.5v645h-127q-55 -45 -113.5 -80.5t-131.5 -56.5v-67zM465 0h104l793 1300h-102zM1096 0h538v221 h-47l-4 -24q-6 -53 -23.5 -72t-82.5 -19h-289l133 117q14 12 41 35q57 47 96 81t77 78t62.5 91t24.5 92q0 94 -73.5 137t-182.5 43q-100 0 -173 -36.5t-79 -120.5v-11v-12q0 -23 5 -36t20 -13h47q20 0 26.5 11t6.5 42q4 12 4 21q12 51 36.5 77.5t100.5 26.5q55 0 80.5 -38 t25.5 -101q0 -84 -63.5 -165t-175.5 -185l-19 -19l-112 -110v-111z" />
<glyph unicode="&#xbe;" horiz-adv-x="1708" d="M84 680q2 -78 59.5 -125t171.5 -47q141 0 222 50t81 177q0 78 -43 130.5t-124 66.5v4q70 16 107.5 62t37.5 112q0 96 -69.5 143t-178.5 47q-115 0 -180.5 -41.5t-65.5 -140.5q0 -29 29 -28h41q33 0 33 24l4 21q2 59 27.5 87.5t82.5 28.5q4 0 11 -2h12q68 -6 89.5 -39.5 t21.5 -103.5q0 -92 -28 -121t-120 -35q-20 0 -57 4v-65q6 2 18 4q41 8 60 8q88 0 115.5 -38t27.5 -130q0 -88 -31.5 -130t-124.5 -42q-74 0 -94 27.5t-20 73.5q0 14 -2 18q0 29 -6.5 40t-34.5 11h-31q-27 0 -34 -13t-7 -38zM451 0h104l793 1300h-103zM983 211h379v-90 q0 -55 -26.5 -70.5t-127.5 -15.5v-39q92 2 207 2q117 0 211 -2v39q-94 0 -115.5 13t-21.5 73v90h125l12 90h-137v465h-139q-88 -123 -179.5 -243t-187.5 -242v-70zM1094 301l268 371v-371h-268z" />
<glyph unicode="&#xbf;" horiz-adv-x="909" d="M94 -225q0 -141 103.5 -214t251.5 -73q154 0 257 73.5t103 223.5q0 45 -27 45h-96q-20 0 -26.5 -11.5t-8.5 -33.5v-8q-4 -98 -44 -163t-134 -65q-96 0 -144 58.5t-48 154.5q0 88 19 139.5t54 75t77 29.5t120 8h12l-39 432q-2 29 -13 61t-30 32q-16 0 -26.5 -23.5 t-18.5 -56.5v-4l-59 -398q-129 -12 -206 -84.5t-77 -197.5zM367 817q0 -57 30.5 -96t83.5 -39t84 39t31 96t-31 96t-84 39t-83.5 -39t-30.5 -96z" />
<glyph unicode="&#xc0;" horiz-adv-x="1593" d="M41 -4q53 2 121 2t121 2q53 -2 120 -2q68 0 121 -2v74q-80 0 -125 15t-45 75q0 18 5.5 41.5t13.5 48.5l127 354h491l133 -342q2 -6 9 -20q25 -59 24 -92q0 -27 -21.5 -43.5t-53 -24.5t-57.5 -10t-46 -2v-74q63 2 141 2t142 2q63 -2 141 -2q76 0 139 -2v70q-55 0 -96 22.5 t-66.5 55t-41 63.5t-29.5 72l-4 10l-431 1124h-135l-440 -1069l-16 -37q-29 -66 -50.5 -114t-35.5 -64q-27 -33 -52.5 -43t-70.5 -12q-23 -2 -33 -4v-74zM485 1800q0 -45 54 -74l321 -213h94l-309 324q-37 45 -78 45t-59 -33q-23 -18 -23 -49zM526 682l226 547l204 -527 l9 -20h-439z" />
<glyph unicode="&#xc1;" horiz-adv-x="1593" d="M41 -4q53 2 121 2t121 2q53 -2 120 -2q68 0 121 -2v74q-80 0 -125 15t-45 75q0 18 5.5 41.5t13.5 48.5l127 354h491l133 -342q2 -6 9 -20q25 -59 24 -92q0 -27 -21.5 -43.5t-53 -24.5t-57.5 -10t-46 -2v-74q63 2 141 2t142 2q63 -2 141 -2q76 0 139 -2v70q-55 0 -96 22.5 t-66.5 55t-41 63.5t-29.5 72l-4 10l-431 1124h-135l-440 -1069l-16 -37q-29 -66 -50.5 -114t-35.5 -64q-27 -33 -52.5 -43t-70.5 -12q-23 -2 -33 -4v-74zM526 682l226 547l204 -527l9 -20h-439zM641 1513h94l322 213q53 29 53 74q0 31 -23 49q-18 33 -57 33q-43 0 -80 -45z " />
<glyph unicode="&#xc2;" horiz-adv-x="1593" d="M41 -4q53 2 121 2t121 2q53 -2 120 -2q68 0 121 -2v74q-80 0 -125 15t-45 75q0 18 5.5 41.5t13.5 48.5l127 354h491l133 -342q2 -6 9 -20q25 -59 24 -92q0 -27 -21.5 -43.5t-53 -24.5t-57.5 -10t-46 -2v-74q63 2 141 2t142 2q63 -2 141 -2q76 0 139 -2v70q-55 0 -96 22.5 t-66.5 55t-41 63.5t-29.5 72l-4 10l-431 1124h-135l-440 -1069l-16 -37q-29 -66 -50.5 -114t-35.5 -64q-27 -33 -52.5 -43t-70.5 -12q-23 -2 -33 -4v-74zM473 1513h88l238 211l235 -211h88l-254 347h-141zM526 682l226 547l204 -527l9 -20h-439z" />
<glyph unicode="&#xc3;" horiz-adv-x="1593" d="M41 -4q53 2 121 2t121 2q53 -2 120 -2q68 0 121 -2v74q-80 0 -125 15t-45 75q0 18 5.5 41.5t13.5 48.5l127 354h491l133 -342q2 -6 9 -20q25 -59 24 -92q0 -27 -21.5 -43.5t-53 -24.5t-57.5 -10t-46 -2v-74q63 2 141 2t142 2q63 -2 141 -2q76 0 139 -2v70q-55 0 -96 22.5 t-66.5 55t-41 63.5t-29.5 72l-4 10l-431 1124h-135l-440 -1069l-16 -37q-29 -66 -50.5 -114t-35.5 -64q-27 -33 -52.5 -43t-70.5 -12q-23 -2 -33 -4v-74zM449 1565h67q8 49 40 73.5t71 24.5q31 0 86 -27l18 -8l25 -12q53 -25 88 -37t76 -12q96 0 150 62.5t79 166.5h-70 q-6 -37 -36.5 -69.5t-73.5 -34.5q-39 0 -107 34q-8 4 -12 7q-41 23 -90 40t-82 17q-92 0 -152.5 -65.5t-76.5 -159.5zM526 682l226 547l204 -527l9 -20h-439z" />
<glyph unicode="&#xc4;" horiz-adv-x="1593" d="M41 -4q53 2 121 2t121 2q53 -2 120 -2q68 0 121 -2v74q-80 0 -125 15t-45 75q0 18 5.5 41.5t13.5 48.5l127 354h491l133 -342q2 -6 9 -20q25 -59 24 -92q0 -27 -21.5 -43.5t-53 -24.5t-57.5 -10t-46 -2v-74q63 2 141 2t142 2q63 -2 141 -2q76 0 139 -2v70q-55 0 -96 22.5 t-66.5 55t-41 63.5t-29.5 72l-4 10l-431 1124h-135l-440 -1069l-16 -37q-29 -66 -50.5 -114t-35.5 -64q-27 -33 -52.5 -43t-70.5 -12q-23 -2 -33 -4v-74zM481 1722q0 -43 32 -75.5t77 -32.5t76.5 32.5t31.5 75.5q0 45 -31.5 78t-76.5 33t-77 -33t-32 -78zM526 682l226 547 l204 -527l9 -20h-439zM897 1722q0 -45 34 -76.5t77 -31.5t75.5 32.5t32.5 75.5t-31.5 77t-76.5 34t-78 -33t-33 -78z" />
<glyph unicode="&#xc5;" horiz-adv-x="1593" d="M41 -4q53 2 121 2t121 2q53 -2 120 -2q68 0 121 -2v74q-80 0 -125 15t-45 75q0 18 5.5 41.5t13.5 48.5l127 354h491l133 -342q2 -6 9 -20q25 -59 24 -92q0 -27 -21.5 -43.5t-53 -24.5t-57.5 -10t-46 -2v-74q63 2 141 2t142 2q63 -2 141 -2q76 0 139 -2v70q-55 0 -96 22.5 t-66.5 55t-41 63.5t-29.5 72l-4 10l-431 1124h-135l-440 -1069l-16 -37q-29 -66 -50.5 -114t-35.5 -64q-27 -33 -52.5 -43t-70.5 -12q-23 -2 -33 -4v-74zM526 682l226 547l204 -527l9 -20h-439zM590 1692q0 -84 60.5 -145.5t146.5 -61.5t146.5 61.5t60.5 145.5 q0 86 -60.5 146t-146.5 60t-146.5 -60t-60.5 -146zM674 1692q0 51 37 87t86 36t86 -36t37 -87q0 -49 -37 -86t-86 -37t-86 37t-37 86z" />
<glyph unicode="&#xc6;" horiz-adv-x="2048" d="M4 -4q55 2 125 2t125 2q55 -2 125 -2q68 0 123 -2v70q-51 0 -104.5 12t-67.5 45q-4 8 -4 18q0 23 16 54l201 368h481v-358q0 -86 -42 -109.5t-136 -27.5q-6 -2 -19 -2v-70q63 2 146 2q80 0 143 2q182 -2 412 -2q229 0 411 -2v420h-108q-12 -119 -23.5 -180.5t-36 -94 t-68.5 -44t-128 -13.5h-367v614h160h31l26 2q53 0 83 -8t46.5 -29.5t22.5 -59.5t6 -111h90v491h-90q0 -78 -8 -118t-29.5 -59.5t-59.5 -24.5t-118 -5h-160v559h346q104 0 154.5 -7t75 -32.5t32 -70.5t15.5 -160v-10h108v358h-1204v-65h183l-578 -949q-20 -35 -25 -41 q-94 -162 -141 -208q-33 -37 -74 -56.5t-96 -27.5v-70zM590 641l418 700h16v-700h-434z" />
<glyph unicode="&#xc7;" horiz-adv-x="1366" d="M72 717q0 -182 34.5 -318.5t111.5 -229.5t205 -141t312 -48q37 0 115 6t165 17t159.5 26.5t105.5 31.5v363h-117q-10 -119 -26.5 -186.5t-53 -109.5t-106.5 -60.5t-189 -18.5q-156 0 -257 54.5t-154 150.5t-72.5 219t-19.5 279q0 135 24.5 244.5t82 193.5t153.5 131 t233 47q100 0 167 -11t112 -40t70.5 -83t35.5 -140l6 -60h111v330q-145 43 -257 61.5t-245 18.5q-369 0 -537.5 -177t-168.5 -550zM471 -389q86 -33 176 -33h10q8 -2 13 -2q76 0 151.5 49t75.5 125q-2 66 -46 105t-118 39q-31 0 -65 -9l41 115h-70l-76 -182l15 -13 q39 12 73 13q92 0 92 -72q-2 -47 -34.5 -70.5t-83.5 -23.5q-39 0 -121 20z" />
<glyph unicode="&#xc8;" horiz-adv-x="1251" d="M31 0h1112v418h-109q-12 -119 -23.5 -179.5t-36 -92t-68.5 -44t-128 -14.5h-366v617h159q74 0 115 -7.5t60.5 -21.5t24.5 -36t7 -67q4 -47 8 -79h91v491h-91q0 -78 -8 -119t-29.5 -60.5t-60.5 -25.5t-117 -6h-159v565h346q106 0 155.5 -8t73 -33.5t31.5 -73.5t16 -163v-4 h109v360h-1112v-69q74 0 113.5 -6.5t57 -21.5t21.5 -39t4 -73v-999q0 -49 -4 -73.5t-21.5 -39t-57.5 -20.5t-113 -6v-70zM313 1800q0 -45 54 -74l321 -213h94l-309 324q-37 45 -78 45t-59 -33q-23 -18 -23 -49z" />
<glyph unicode="&#xc9;" horiz-adv-x="1251" d="M31 0h1112v418h-109q-12 -119 -23.5 -179.5t-36 -92t-68.5 -44t-128 -14.5h-366v617h159q74 0 115 -7.5t60.5 -21.5t24.5 -36t7 -67q4 -47 8 -79h91v491h-91q0 -78 -8 -119t-29.5 -60.5t-60.5 -25.5t-117 -6h-159v565h346q106 0 155.5 -8t73 -33.5t31.5 -73.5t16 -163v-4 h109v360h-1112v-69q74 0 113.5 -6.5t57 -21.5t21.5 -39t4 -73v-999q0 -49 -4 -73.5t-21.5 -39t-57.5 -20.5t-113 -6v-70zM469 1513h94l322 213q53 29 53 74q0 31 -23 49q-18 33 -57 33q-43 0 -80 -45z" />
<glyph unicode="&#xca;" horiz-adv-x="1251" d="M31 0h1112v418h-109q-12 -119 -23.5 -179.5t-36 -92t-68.5 -44t-128 -14.5h-366v617h159q74 0 115 -7.5t60.5 -21.5t24.5 -36t7 -67q4 -47 8 -79h91v491h-91q0 -78 -8 -119t-29.5 -60.5t-60.5 -25.5t-117 -6h-159v565h346q106 0 155.5 -8t73 -33.5t31.5 -73.5t16 -163v-4 h109v360h-1112v-69q74 0 113.5 -6.5t57 -21.5t21.5 -39t4 -73v-999q0 -49 -4 -73.5t-21.5 -39t-57.5 -20.5t-113 -6v-70zM301 1513h88l238 211l235 -211h88l-254 347h-141z" />
<glyph unicode="&#xcb;" horiz-adv-x="1251" d="M31 0h1112v418h-109q-12 -119 -23.5 -179.5t-36 -92t-68.5 -44t-128 -14.5h-366v617h159q74 0 115 -7.5t60.5 -21.5t24.5 -36t7 -67q4 -47 8 -79h91v491h-91q0 -78 -8 -119t-29.5 -60.5t-60.5 -25.5t-117 -6h-159v565h346q106 0 155.5 -8t73 -33.5t31.5 -73.5t16 -163v-4 h109v360h-1112v-69q74 0 113.5 -6.5t57 -21.5t21.5 -39t4 -73v-999q0 -49 -4 -73.5t-21.5 -39t-57.5 -20.5t-113 -6v-70zM309 1722q0 -43 32 -75.5t77 -32.5t76.5 32.5t31.5 75.5q0 45 -31.5 78t-76.5 33t-77 -33t-32 -78zM725 1722q0 -45 34 -76.5t77 -31.5t75.5 32.5 t32.5 75.5t-31.5 77t-76.5 34t-78 -33t-33 -78z" />
<glyph unicode="&#xcc;" horiz-adv-x="681" d="M29 1800q0 -45 53 -74l321 -213h95l-310 324q-37 45 -77 45q-41 0 -60 -33q-23 -18 -22 -49zM53 -4q63 2 146 2q80 0 143 2q63 -2 145 -2q80 0 144 -2v70q-68 0 -103.5 4t-54.5 16q-39 23 -39 119v1003q0 96 37 118t160 22v69q-63 -2 -144 -2q-82 0 -145 -2q-63 2 -143 2 q-82 0 -146 2v-69q68 0 104 -3.5t54 -17.5q39 -23 39 -119v-1003q0 -96 -39 -119q-20 -12 -55 -16t-103 -4v-70z" />
<glyph unicode="&#xcd;" horiz-adv-x="681" d="M53 -4q63 2 146 2q80 0 143 2q63 -2 145 -2q80 0 144 -2v70q-68 0 -103.5 4t-54.5 16q-39 23 -39 119v1003q0 96 37 118t160 22v69q-63 -2 -144 -2q-82 0 -145 -2q-63 2 -143 2q-82 0 -146 2v-69q68 0 104 -3.5t54 -17.5q39 -23 39 -119v-1003q0 -96 -39 -119 q-20 -12 -55 -16t-103 -4v-70zM184 1513h95l321 213q53 29 53 74q0 31 -22 49q-18 33 -58 33q-43 0 -79 -45z" />
<glyph unicode="&#xce;" horiz-adv-x="681" d="M16 1513h88l238 211l236 -211h88l-254 347h-142zM53 -4q63 2 146 2q80 0 143 2q63 -2 145 -2q80 0 144 -2v70q-68 0 -103.5 4t-54.5 16q-39 23 -39 119v1003q0 96 37 118t160 22v69q-63 -2 -144 -2q-82 0 -145 -2q-63 2 -143 2q-82 0 -146 2v-69q68 0 104 -3.5t54 -17.5 q39 -23 39 -119v-1003q0 -96 -39 -119q-20 -12 -55 -16t-103 -4v-70z" />
<glyph unicode="&#xcf;" horiz-adv-x="681" d="M25 1722q0 -43 31.5 -75.5t76.5 -32.5t77 32.5t32 75.5q0 45 -32 78t-77 33t-76.5 -33t-31.5 -78zM53 -4q63 2 146 2q80 0 143 2q63 -2 145 -2q80 0 144 -2v70q-68 0 -103.5 4t-54.5 16q-39 23 -39 119v1003q0 96 37 118t160 22v69q-63 -2 -144 -2q-82 0 -145 -2 q-63 2 -143 2q-82 0 -146 2v-69q68 0 104 -3.5t54 -17.5q39 -23 39 -119v-1003q0 -96 -39 -119q-20 -12 -55 -16t-103 -4v-70zM440 1722q0 -45 34 -76.5t77 -31.5t75.5 32.5t32.5 75.5t-31.5 77t-76.5 34t-78 -33t-33 -78z" />
<glyph unicode="&#xd0;" horiz-adv-x="1478" d="M29 705h202v-500q0 -49 -4 -74t-21.5 -39t-57 -20t-113.5 -6v-70q63 2 145 2q80 0 144 2q96 -2 215 -2q117 0 213 -2q188 10 310 55t190.5 133t96 220.5t27.5 328.5q0 88 -6 165t-25.5 152.5t-57.5 143.5t-97 117q-74 61 -176.5 83.5t-243.5 22.5q-29 0 -176 -2 q-223 -2 -270 -2q-63 2 -144 2q-82 0 -145 2v-69q74 0 113.5 -6.5t57 -21.5t21.5 -39t4 -73v-420h-202v-83zM416 88v617h289v83h-289v535q139 16 276 16q166 0 263.5 -48t142.5 -136t56 -198.5t11 -288.5q0 -172 -24.5 -282t-85 -177.5t-165 -98t-267.5 -30.5q-100 0 -207 8 z" />
<glyph unicode="&#xd1;" horiz-adv-x="1593" d="M43 -4q53 2 121 2q66 0 119 2q53 -2 120 -2q66 0 119 -2v70q-119 0 -153.5 22.5t-34.5 116.5v991l905 -1196h133v1208q0 51 7 79t25.5 40t49.5 16.5t94 4.5v69q-51 -2 -116 -2q-66 0 -117 -2q-51 2 -117 2t-117 2v-69q121 0 155 -22.5t34 -117.5v-962l-877 1171 q-39 -2 -86 -2q-49 0 -88 -2q-39 2 -88 2t-88 2v-69q117 0 152.5 -22.5t35.5 -117.5v-1003q0 -94 -33.5 -116.5t-154.5 -22.5v-70zM449 1565h67q8 49 40 73.5t71 24.5q31 0 86 -27l18 -8l25 -12q53 -25 88 -37t76 -12q96 0 150 62.5t79 166.5h-70q-6 -37 -36.5 -69.5 t-73.5 -34.5q-39 0 -107 34q-8 4 -12 7q-41 23 -90 40t-82 17q-92 0 -152.5 -65.5t-76.5 -159.5z" />
<glyph unicode="&#xd2;" horiz-adv-x="1593" d="M90 713q0 -199 36 -336t117 -225.5t215 -130t333 -41.5q209 0 344 41.5t212.5 130t110.5 224.5t33 337q0 199 -36 336t-115.5 225t-214 129t-334.5 41q-201 0 -335 -41t-214 -129t-116 -225.5t-36 -335.5zM299 713q0 143 20.5 257.5t73.5 206t152 143.5t246 52 q150 0 247 -52t150 -143.5t73.5 -206t20.5 -257.5t-20.5 -259t-73.5 -206t-151.5 -143.5t-245.5 -53.5t-246 53.5t-152 144.5t-73.5 205.5t-20.5 258.5zM485 1800q0 -45 54 -74l321 -213h94l-309 324q-37 45 -78 45t-59 -33q-23 -18 -23 -49z" />
<glyph unicode="&#xd3;" horiz-adv-x="1593" d="M90 713q0 -199 36 -336t117 -225.5t215 -130t333 -41.5q209 0 344 41.5t212.5 130t110.5 224.5t33 337q0 199 -36 336t-115.5 225t-214 129t-334.5 41q-201 0 -335 -41t-214 -129t-116 -225.5t-36 -335.5zM299 713q0 143 20.5 257.5t73.5 206t152 143.5t246 52 q150 0 247 -52t150 -143.5t73.5 -206t20.5 -257.5t-20.5 -259t-73.5 -206t-151.5 -143.5t-245.5 -53.5t-246 53.5t-152 144.5t-73.5 205.5t-20.5 258.5zM641 1513h94l322 213q53 29 53 74q0 31 -23 49q-18 33 -57 33q-43 0 -80 -45z" />
<glyph unicode="&#xd4;" horiz-adv-x="1593" d="M90 713q0 -199 36 -336t117 -225.5t215 -130t333 -41.5q209 0 344 41.5t212.5 130t110.5 224.5t33 337q0 199 -36 336t-115.5 225t-214 129t-334.5 41q-201 0 -335 -41t-214 -129t-116 -225.5t-36 -335.5zM299 713q0 143 20.5 257.5t73.5 206t152 143.5t246 52 q150 0 247 -52t150 -143.5t73.5 -206t20.5 -257.5t-20.5 -259t-73.5 -206t-151.5 -143.5t-245.5 -53.5t-246 53.5t-152 144.5t-73.5 205.5t-20.5 258.5zM473 1513h88l238 211l235 -211h88l-254 347h-141z" />
<glyph unicode="&#xd5;" horiz-adv-x="1593" d="M90 713q0 -199 36 -336t117 -225.5t215 -130t333 -41.5q209 0 344 41.5t212.5 130t110.5 224.5t33 337q0 199 -36 336t-115.5 225t-214 129t-334.5 41q-201 0 -335 -41t-214 -129t-116 -225.5t-36 -335.5zM299 713q0 143 20.5 257.5t73.5 206t152 143.5t246 52 q150 0 247 -52t150 -143.5t73.5 -206t20.5 -257.5t-20.5 -259t-73.5 -206t-151.5 -143.5t-245.5 -53.5t-246 53.5t-152 144.5t-73.5 205.5t-20.5 258.5zM449 1565h67q8 49 40 73.5t71 24.5q31 0 86 -27l18 -8l25 -12q53 -25 88 -37t76 -12q96 0 150 62.5t79 166.5h-70 q-6 -37 -36.5 -69.5t-73.5 -34.5q-39 0 -107 34q-8 4 -12 7q-41 23 -90 40t-82 17q-92 0 -152.5 -65.5t-76.5 -159.5z" />
<glyph unicode="&#xd6;" horiz-adv-x="1593" d="M90 713q0 -199 36 -336t117 -225.5t215 -130t333 -41.5q209 0 344 41.5t212.5 130t110.5 224.5t33 337q0 199 -36 336t-115.5 225t-214 129t-334.5 41q-201 0 -335 -41t-214 -129t-116 -225.5t-36 -335.5zM299 713q0 143 20.5 257.5t73.5 206t152 143.5t246 52 q150 0 247 -52t150 -143.5t73.5 -206t20.5 -257.5t-20.5 -259t-73.5 -206t-151.5 -143.5t-245.5 -53.5t-246 53.5t-152 144.5t-73.5 205.5t-20.5 258.5zM481 1722q0 -43 32 -75.5t77 -32.5t76.5 32.5t31.5 75.5q0 45 -31.5 78t-76.5 33t-77 -33t-32 -78zM897 1722 q0 -45 34 -76.5t77 -31.5t75.5 32.5t32.5 75.5t-31.5 77t-76.5 34t-78 -33t-33 -78z" />
<glyph unicode="&#xd7;" horiz-adv-x="1241" d="M164 156l92 -93l365 363l362 -365l94 93l-364 364l360 363l-92 92l-360 -363l-363 361l-92 -92l360 -361z" />
<glyph unicode="&#xd8;" horiz-adv-x="1593" d="M84 -66l55 -55l176 209q92 -68 207 -88t269 -20q209 0 344 41.5t212.5 130t110.5 224.5t33 337q0 184 -33 324.5t-131 244.5l166 197l-61 45l-162 -191q-86 72 -200 91.5t-279 19.5q-201 0 -335 -41t-214 -129t-116 -225.5t-36 -335.5q0 -186 34 -327.5t134 -246.5z M299 713q0 143 20.5 258.5t73.5 207t151.5 143.5t246.5 52q133 0 226 -43t148 -121l-788 -929q-43 82 -60.5 190.5t-17.5 241.5zM420 211l786 930q43 -84 59.5 -190.5t16.5 -237.5q0 -143 -20.5 -259t-73.5 -206t-151.5 -143.5t-245.5 -53.5q-131 0 -222.5 41t-148.5 119z " />
<glyph unicode="&#xd9;" horiz-adv-x="1593" d="M59 1348q70 0 107 -6.5t54.5 -21.5t21.5 -39t4 -73v-770q0 -240 131 -349t381 -109q154 0 265.5 25.5t189 83.5t116.5 157.5t39 247.5v714q0 47 4 72t20.5 39t54.5 21.5t105 7.5v69q-55 -2 -127 -2t-127 -2q-55 2 -127 2t-127 2v-69q86 0 129.5 -5.5t62.5 -18.5 t24.5 -37.5t5.5 -78.5v-716q0 -233 -107.5 -336t-337.5 -103q-205 0 -298 99.5t-93 308.5v747q0 49 4 74t21.5 39t57.5 20.5t114 6.5v69q-63 -2 -144 -2q-82 0 -145 -2q-61 2 -139 2q-113 2 -140 2v-69zM485 1800q0 -45 54 -74l321 -213h94l-309 324q-37 45 -78 45t-59 -33 q-23 -18 -23 -49z" />
<glyph unicode="&#xda;" horiz-adv-x="1593" d="M59 1348q70 0 107 -6.5t54.5 -21.5t21.5 -39t4 -73v-770q0 -240 131 -349t381 -109q154 0 265.5 25.5t189 83.5t116.5 157.5t39 247.5v714q0 47 4 72t20.5 39t54.5 21.5t105 7.5v69q-55 -2 -127 -2t-127 -2q-55 2 -127 2t-127 2v-69q86 0 129.5 -5.5t62.5 -18.5 t24.5 -37.5t5.5 -78.5v-716q0 -233 -107.5 -336t-337.5 -103q-205 0 -298 99.5t-93 308.5v747q0 49 4 74t21.5 39t57.5 20.5t114 6.5v69q-63 -2 -144 -2q-82 0 -145 -2q-61 2 -139 2q-113 2 -140 2v-69zM682 1513h94l322 213q53 29 53 74q0 31 -23 49q-18 33 -57 33 q-43 0 -80 -45z" />
<glyph unicode="&#xdb;" horiz-adv-x="1593" d="M59 1348q70 0 107 -6.5t54.5 -21.5t21.5 -39t4 -73v-770q0 -240 131 -349t381 -109q154 0 265.5 25.5t189 83.5t116.5 157.5t39 247.5v714q0 47 4 72t20.5 39t54.5 21.5t105 7.5v69q-55 -2 -127 -2t-127 -2q-55 2 -127 2t-127 2v-69q86 0 129.5 -5.5t62.5 -18.5 t24.5 -37.5t5.5 -78.5v-716q0 -233 -107.5 -336t-337.5 -103q-205 0 -298 99.5t-93 308.5v747q0 49 4 74t21.5 39t57.5 20.5t114 6.5v69q-63 -2 -144 -2q-82 0 -145 -2q-61 2 -139 2q-113 2 -140 2v-69zM473 1513h88l238 211l235 -211h88l-254 347h-141z" />
<glyph unicode="&#xdc;" horiz-adv-x="1593" d="M59 1348q70 0 107 -6.5t54.5 -21.5t21.5 -39t4 -73v-770q0 -240 131 -349t381 -109q154 0 265.5 25.5t189 83.5t116.5 157.5t39 247.5v714q0 47 4 72t20.5 39t54.5 21.5t105 7.5v69q-55 -2 -127 -2t-127 -2q-55 2 -127 2t-127 2v-69q86 0 129.5 -5.5t62.5 -18.5 t24.5 -37.5t5.5 -78.5v-716q0 -233 -107.5 -336t-337.5 -103q-205 0 -298 99.5t-93 308.5v747q0 49 4 74t21.5 39t57.5 20.5t114 6.5v69q-63 -2 -144 -2q-82 0 -145 -2q-61 2 -139 2q-113 2 -140 2v-69zM481 1722q0 -43 32 -75.5t77 -32.5t76.5 32.5t31.5 75.5 q0 45 -31.5 78t-76.5 33t-77 -33t-32 -78zM897 1722q0 -45 34 -76.5t77 -31.5t75.5 32.5t32.5 75.5t-31.5 77t-76.5 34t-78 -33t-33 -78z" />
<glyph unicode="&#xdd;" horiz-adv-x="1478" d="M43 1352q104 -10 157.5 -58.5t137.5 -183.5q41 -66 65 -102l195 -310q35 -53 43 -79.5t8 -90.5v-323q0 -51 -9 -79t-30.5 -41t-57.5 -16t-112 -3v-70q70 2 150 2q123 2 151 2q29 0 152 -2q80 0 149 -2v70q-74 0 -110.5 3t-58 16t-30.5 41t-9 79v315q0 27 10 62.5t33 72.5 l286 455q10 16 37 61q53 90 96 130t131 51v65q-49 -2 -110 -2t-111 -2q-49 2 -110 2t-111 2v-65q27 0 48.5 -1t44 -8.5t37.5 -21.5t15 -39q0 -23 -10 -47.5t-26 -46.5l-281 -492l-309 510l-6 11q-23 35 -23 55v4v6q8 41 40 52.5t99 15.5q23 2 33 2v65q-68 -2 -149 -2 q-84 0 -152 -2q-68 2 -151 2q-84 0 -152 2v-65zM625 1513h94l321 213q53 29 54 74q0 31 -23 49q-18 33 -57 33q-43 0 -80 -45z" />
<glyph unicode="&#xde;" horiz-adv-x="1251" d="M39 -4q63 2 145 2q80 0 144 2q63 -2 145 -2q80 0 143 -2v70q-74 0 -112.5 6t-57 21.5t-22.5 39t-4 72.5v108h188q139 0 235.5 14.5t167 58.5t108.5 131t38 226q0 199 -97 279t-308 80q-111 -2 -332 -2v108q0 96 37 118t159 22v69q-63 -2 -143 -2q-82 0 -145 -2 q-63 2 -144 2q-82 0 -145 2v-69q74 0 114 -6.5t57 -21.5t21.5 -39t4.5 -73v-1003q0 -49 -4.5 -74t-21.5 -39t-57 -20t-114 -6v-70zM420 387v643h201q98 0 156.5 -9t97 -41t58 -96.5t19.5 -174.5q0 -113 -30.5 -178.5t-86 -96.5t-127 -39t-188.5 -8h-100z" />
<glyph unicode="&#xdf;" d="M41 -4q39 0 121 2q84 0 123 2q53 -2 106 -2q86 -2 101 -2v65q-80 0 -101.5 30t-21.5 114v1007q4 119 43 182.5t147 63.5q115 0 157 -63.5t42 -184.5q0 -133 -44 -191t-177 -77v-63q12 -2 45 -7q84 -8 130 -21t79.5 -49t51 -113t17.5 -210v-24q2 -47 2 -58 q0 -61 -5 -119.5t-17.5 -112.5t-38 -89t-66.5 -35q-63 0 -97 43t-34 104l-26 9l-62 -136q41 -43 98.5 -62t122.5 -19q106 0 170 49t92.5 128t34.5 160.5t6 198.5q0 104 -13 171t-47 113t-93.5 75.5t-159.5 50.5q109 61 153 125.5t44 181.5q0 147 -94.5 220t-245.5 73 q-190 0 -286.5 -83t-96.5 -267v-971q0 -80 -30 -112t-130 -32v-65z" />
<glyph unicode="&#xe0;" horiz-adv-x="1024" d="M86 268q0 -158 82 -222t248 -64q152 0 256 96v-82q35 2 80 2t79 2q27 -2 82 -2t80 -2v65q-61 4 -90 9.5t-45 18.5t-21.5 39t-5.5 77v446q0 180 -74.5 251t-258.5 71q-63 0 -122 -9.5t-111 -33t-87 -66.5t-43 -108v-15l-2 -12q0 -76 66 -78q37 0 62.5 11.5t25.5 42.5 q0 109 32.5 153.5t153.5 44.5q90 0 140.5 -37t50.5 -116v-207q-33 0 -76 2h-86q-88 0 -159 -9.5t-129 -38t-93 -85t-35 -144.5zM201 1360q0 -45 53 -74l321 -213h95l-310 324q-37 45 -77 45q-41 0 -60 -33q-23 -18 -22 -49zM262 264q0 72 20.5 115t58.5 63.5t87 26.5t123 6 h113v-196q0 -123 -47.5 -172.5t-178.5 -49.5q-92 0 -134 56.5t-42 150.5z" />
<glyph unicode="&#xe1;" horiz-adv-x="1024" d="M86 268q0 -158 82 -222t248 -64q152 0 256 96v-82q35 2 80 2t79 2q27 -2 82 -2t80 -2v65q-61 4 -90 9.5t-45 18.5t-21.5 39t-5.5 77v446q0 180 -74.5 251t-258.5 71q-63 0 -122 -9.5t-111 -33t-87 -66.5t-43 -108v-15l-2 -12q0 -76 66 -78q37 0 62.5 11.5t25.5 42.5 q0 109 32.5 153.5t153.5 44.5q90 0 140.5 -37t50.5 -116v-207q-33 0 -76 2h-86q-88 0 -159 -9.5t-129 -38t-93 -85t-35 -144.5zM262 264q0 72 20.5 115t58.5 63.5t87 26.5t123 6h113v-196q0 -123 -47.5 -172.5t-178.5 -49.5q-92 0 -134 56.5t-42 150.5zM356 1073h95l321 213 q53 29 53 74q0 31 -22 49q-18 33 -58 33q-43 0 -79 -45z" />
<glyph unicode="&#xe2;" horiz-adv-x="1024" d="M86 268q0 -158 82 -222t248 -64q152 0 256 96v-82q35 2 80 2t79 2q27 -2 82 -2t80 -2v65q-61 4 -90 9.5t-45 18.5t-21.5 39t-5.5 77v446q0 180 -74.5 251t-258.5 71q-63 0 -122 -9.5t-111 -33t-87 -66.5t-43 -108v-15l-2 -12q0 -76 66 -78q37 0 62.5 11.5t25.5 42.5 q0 109 32.5 153.5t153.5 44.5q90 0 140.5 -37t50.5 -116v-207q-33 0 -76 2h-86q-88 0 -159 -9.5t-129 -38t-93 -85t-35 -144.5zM188 1073h88l238 211l236 -211h88l-254 346h-142zM262 264q0 72 20.5 115t58.5 63.5t87 26.5t123 6h113v-196q0 -123 -47.5 -172.5t-178.5 -49.5 q-92 0 -134 56.5t-42 150.5z" />
<glyph unicode="&#xe3;" horiz-adv-x="1024" d="M86 268q0 -158 82 -222t248 -64q152 0 256 96v-82q35 2 80 2t79 2q27 -2 82 -2t80 -2v65q-61 4 -90 9.5t-45 18.5t-21.5 39t-5.5 77v446q0 180 -74.5 251t-258.5 71q-63 0 -122 -9.5t-111 -33t-87 -66.5t-43 -108v-15l-2 -12q0 -76 66 -78q37 0 62.5 11.5t25.5 42.5 q0 109 32.5 153.5t153.5 44.5q90 0 140.5 -37t50.5 -116v-207q-33 0 -76 2h-86q-88 0 -159 -9.5t-129 -38t-93 -85t-35 -144.5zM164 1124h67q8 49 40 74t71 25q31 0 86 -27l18 -8l25 -12q53 -25 88 -37.5t76 -12.5q96 0 150.5 62.5t78.5 167.5h-69q-6 -37 -37 -70t-74 -35 q-39 0 -106 35q-8 4 -13 6q-41 23 -90 40.5t-82 17.5q-92 0 -152.5 -65.5t-76.5 -160.5zM262 264q0 72 20.5 115t58.5 63.5t87 26.5t123 6h113v-196q0 -123 -47.5 -172.5t-178.5 -49.5q-92 0 -134 56.5t-42 150.5z" />
<glyph unicode="&#xe4;" horiz-adv-x="1024" d="M86 268q0 -158 82 -222t248 -64q152 0 256 96v-82q35 2 80 2t79 2q27 -2 82 -2t80 -2v65q-61 4 -90 9.5t-45 18.5t-21.5 39t-5.5 77v446q0 180 -74.5 251t-258.5 71q-63 0 -122 -9.5t-111 -33t-87 -66.5t-43 -108v-15l-2 -12q0 -76 66 -78q37 0 62.5 11.5t25.5 42.5 q0 109 32.5 153.5t153.5 44.5q90 0 140.5 -37t50.5 -116v-207q-33 0 -76 2h-86q-88 0 -159 -9.5t-129 -38t-93 -85t-35 -144.5zM197 1282q0 -43 31.5 -75.5t76.5 -32.5t77 32.5t32 75.5q0 45 -32 78t-77 33t-76.5 -33t-31.5 -78zM262 264q0 72 20.5 115t58.5 63.5t87 26.5 t123 6h113v-196q0 -123 -47.5 -172.5t-178.5 -49.5q-92 0 -134 56.5t-42 150.5zM612 1282q0 -45 34 -76.5t77 -31.5t75.5 32.5t32.5 75.5t-31.5 77t-76.5 34t-78 -33t-33 -78z" />
<glyph unicode="&#xe5;" horiz-adv-x="1024" d="M86 268q0 -158 82 -222t248 -64q152 0 256 96v-82q35 2 80 2t79 2q27 -2 82 -2t80 -2v65q-61 4 -90 9.5t-45 18.5t-21.5 39t-5.5 77v446q0 180 -74.5 251t-258.5 71q-63 0 -122 -9.5t-111 -33t-87 -66.5t-43 -108v-15l-2 -12q0 -76 66 -78q37 0 62.5 11.5t25.5 42.5 q0 109 32.5 153.5t153.5 44.5q90 0 140.5 -37t50.5 -116v-207q-33 0 -76 2h-86q-88 0 -159 -9.5t-129 -38t-93 -85t-35 -144.5zM262 264q0 72 20.5 115t58.5 63.5t87 26.5t123 6h113v-196q0 -123 -47.5 -172.5t-178.5 -49.5q-92 0 -134 56.5t-42 150.5zM305 1282 q0 -84 60.5 -145.5t146.5 -61.5t146.5 61.5t60.5 145.5q0 86 -60.5 146.5t-146.5 60.5t-146.5 -60.5t-60.5 -146.5zM389 1282q0 51 37 87t86 36t86 -36t37 -87q0 -49 -37 -86t-86 -37t-86 37t-37 86z" />
<glyph unicode="&#xe6;" horiz-adv-x="1593" d="M90 266q0 -137 78 -210.5t252 -73.5q90 0 180 42t129 113q51 -86 141.5 -121.5t231.5 -35.5q160 0 258 82.5t110 216.5v6q2 4 3 4q0 23 -18.5 29t-49.5 6q-33 0 -51.5 -7.5t-20.5 -35.5q-23 -131 -71 -184.5t-177 -53.5q-82 0 -133 33t-76.5 91t-33.5 132t-8 174h651 q0 129 -18.5 220t-64.5 153.5t-129 94.5t-210 32q-84 0 -156.5 -26.5t-126.5 -82.5q-47 61 -120.5 85t-157.5 24q-59 0 -118.5 -11.5t-111 -35t-86 -62.5t-43.5 -92q-4 -25 -4 -43q0 -76 64 -78q37 0 62.5 11.5t25.5 42.5q0 109 33.5 152.5t152.5 43.5q90 0 140.5 -37 t50.5 -116v-205q-31 0 -76 2h-86q-88 0 -159 -9.5t-129 -38t-93 -85t-35 -146.5zM266 262q0 72 20.5 115t58.5 63.5t87 26.5t123 6h113v-197q0 -123 -48.5 -171t-177.5 -48q-92 0 -134 56.5t-42 148.5zM831 596q0 63 12.5 118.5t39 99.5t74 68.5t112.5 24.5q80 0 127 -30.5 t68.5 -81t25.5 -107.5t4 -145h-460v26q-2 23 -3 27z" />
<glyph unicode="&#xe7;" horiz-adv-x="1024" d="M94 481q0 -262 96.5 -381.5t350.5 -119.5q113 0 200.5 17t176.5 62v240h-103q0 -2 -4 -43q-8 -59 -16.5 -94t-30 -61.5t-66.5 -41t-118 -14.5q-100 0 -162 35t-92.5 94t-40 134t-9.5 173t9.5 171t40 131.5t92 91t160.5 32.5q76 0 121.5 -17.5t67 -46t29 -59t11.5 -79.5 q2 -33 4 -43h107v217q-27 27 -72 45t-98.5 29.5t-104.5 15.5t-92 4q-248 0 -352.5 -120t-104.5 -372zM299 -389q86 -33 176 -33h10q8 -2 13 -2q76 0 151.5 49t75.5 125q-2 66 -46 105t-118 39q-31 0 -65 -9l41 115h-70l-76 -182l15 -13q39 12 73 13q92 0 92 -72 q-2 -47 -34.5 -70.5t-83.5 -23.5q-39 0 -121 20z" />
<glyph unicode="&#xe8;" horiz-adv-x="1024" d="M96 530q0 -125 18.5 -223t63.5 -172t128 -114.5t208 -40.5q168 0 275.5 74.5t130.5 234.5q0 23 -16.5 29t-47.5 6q-37 0 -53.5 -5.5t-16.5 -27.5q-2 -6 -8 -35q-10 -45 -21.5 -79t-35 -62.5t-67.5 -47t-111 -18.5q-92 0 -146.5 38t-79 98.5t-30.5 127t-6 160.5h655v27 l2 26q0 213 -95 330t-306 117q-209 0 -325 -116t-116 -327zM201 1360q0 -45 53 -74l321 -213h95l-310 324q-37 45 -77 45q-41 0 -60 -33q-23 -18 -22 -49zM281 543q0 80 10 144.5t35.5 113.5t72.5 77.5t117 28.5q68 0 114 -24.5t72.5 -68.5t38 -99.5t11.5 -120.5 q0 -12 -2 -25v-26h-469z" />
<glyph unicode="&#xe9;" horiz-adv-x="1024" d="M96 530q0 -125 18.5 -223t63.5 -172t128 -114.5t208 -40.5q168 0 275.5 74.5t130.5 234.5q0 23 -16.5 29t-47.5 6q-37 0 -53.5 -5.5t-16.5 -27.5q-2 -6 -8 -35q-10 -45 -21.5 -79t-35 -62.5t-67.5 -47t-111 -18.5q-92 0 -146.5 38t-79 98.5t-30.5 127t-6 160.5h655v27 l2 26q0 213 -95 330t-306 117q-209 0 -325 -116t-116 -327zM281 543q0 80 10 144.5t35.5 113.5t72.5 77.5t117 28.5q68 0 114 -24.5t72.5 -68.5t38 -99.5t11.5 -120.5q0 -12 -2 -25v-26h-469zM356 1073h95l321 213q53 29 53 74q0 31 -22 49q-18 33 -58 33q-43 0 -79 -45z " />
<glyph unicode="&#xea;" horiz-adv-x="1024" d="M96 530q0 -125 18.5 -223t63.5 -172t128 -114.5t208 -40.5q168 0 275.5 74.5t130.5 234.5q0 23 -16.5 29t-47.5 6q-37 0 -53.5 -5.5t-16.5 -27.5q-2 -6 -8 -35q-10 -45 -21.5 -79t-35 -62.5t-67.5 -47t-111 -18.5q-92 0 -146.5 38t-79 98.5t-30.5 127t-6 160.5h655v27 l2 26q0 213 -95 330t-306 117q-209 0 -325 -116t-116 -327zM188 1073h88l238 211l236 -211h88l-254 346h-142zM281 543q0 80 10 144.5t35.5 113.5t72.5 77.5t117 28.5q68 0 114 -24.5t72.5 -68.5t38 -99.5t11.5 -120.5q0 -12 -2 -25v-26h-469z" />
<glyph unicode="&#xeb;" horiz-adv-x="1024" d="M96 530q0 -125 18.5 -223t63.5 -172t128 -114.5t208 -40.5q168 0 275.5 74.5t130.5 234.5q0 23 -16.5 29t-47.5 6q-37 0 -53.5 -5.5t-16.5 -27.5q-2 -6 -8 -35q-10 -45 -21.5 -79t-35 -62.5t-67.5 -47t-111 -18.5q-92 0 -146.5 38t-79 98.5t-30.5 127t-6 160.5h655v27 l2 26q0 213 -95 330t-306 117q-209 0 -325 -116t-116 -327zM197 1282q0 -43 31.5 -75.5t76.5 -32.5t77 32.5t32 75.5q0 45 -32 78t-77 33t-76.5 -33t-31.5 -78zM281 543q0 80 10 144.5t35.5 113.5t72.5 77.5t117 28.5q68 0 114 -24.5t72.5 -68.5t38 -99.5t11.5 -120.5 q0 -12 -2 -25v-26h-469zM612 1282q0 -45 34 -76.5t77 -31.5t75.5 32.5t32.5 75.5t-31.5 77t-76.5 34t-78 -33t-33 -78z" />
<glyph unicode="&#xec;" horiz-adv-x="681" d="M29 1360q0 -45 53 -74l321 -213h95l-310 324q-37 45 -77 45q-41 0 -60 -33q-23 -18 -22 -49zM74 -4q23 0 133 2q74 0 133 2q59 -2 133 -2q111 -2 133 -2v65q-68 0 -103.5 6.5t-52 21.5t-21.5 41t-5 75v747h-350v-63h4q70 -6 101.5 -11.5t48 -17.5t22.5 -37.5t6 -79.5 v-538q0 -49 -5 -75t-21.5 -41t-52.5 -21.5t-103 -6.5v-65z" />
<glyph unicode="&#xed;" horiz-adv-x="681" d="M74 -4q23 0 133 2q74 0 133 2q59 -2 133 -2q111 -2 133 -2v65q-68 0 -103.5 6.5t-52 21.5t-21.5 41t-5 75v747h-350v-63h4q70 -6 101.5 -11.5t48 -17.5t22.5 -37.5t6 -79.5v-538q0 -49 -5 -75t-21.5 -41t-52.5 -21.5t-103 -6.5v-65zM184 1073h95l321 213q53 29 53 74 q0 31 -22 49q-18 33 -58 33q-43 0 -79 -45z" />
<glyph unicode="&#xee;" horiz-adv-x="681" d="M16 1073h88l238 211l236 -211h88l-254 346h-142zM74 -4q23 0 133 2q74 0 133 2q59 -2 133 -2q111 -2 133 -2v65q-68 0 -103.5 6.5t-52 21.5t-21.5 41t-5 75v747h-350v-63h4q70 -6 101.5 -11.5t48 -17.5t22.5 -37.5t6 -79.5v-538q0 -49 -5 -75t-21.5 -41t-52.5 -21.5 t-103 -6.5v-65z" />
<glyph unicode="&#xef;" horiz-adv-x="681" d="M25 1282q0 -43 31.5 -75.5t76.5 -32.5t77 32.5t32 75.5q0 45 -32 78t-77 33t-76.5 -33t-31.5 -78zM74 -4q23 0 133 2q74 0 133 2q59 -2 133 -2q111 -2 133 -2v65q-68 0 -103.5 6.5t-52 21.5t-21.5 41t-5 75v747h-350v-63h4q70 -6 101.5 -11.5t48 -17.5t22.5 -37.5 t6 -79.5v-538q0 -49 -5 -75t-21.5 -41t-52.5 -21.5t-103 -6.5v-65zM440 1282q0 -45 34 -76.5t77 -31.5t75.5 32.5t32.5 75.5t-31.5 77t-76.5 34t-78 -33t-33 -78z" />
<glyph unicode="&#xf0;" d="M104 477q0 -246 105.5 -370.5t359.5 -126.5q125 0 215 43t145.5 122.5t80 187t24.5 240.5q0 252 -77.5 437.5t-211.5 308.5l265 137l-74 62l-264 -138q-86 61 -179.5 98.5t-177.5 47.5l-67 -43q68 -10 151.5 -53.5t161.5 -106.5l-332 -172l70 -64l328 170 q139 -154 174 -342q-102 57 -232 58q-240 0 -352.5 -121t-112.5 -375zM289 477q0 98 7 168t34.5 128t85 94t153.5 36t153.5 -34.5t85.5 -94t35 -129.5t7 -168t-7 -168.5t-34 -129t-85 -94.5t-155 -36q-96 0 -153.5 36t-85 95.5t-34.5 129t-7 167.5z" />
<glyph unicode="&#xf1;" horiz-adv-x="1251" d="M47 -4q23 0 133 2q74 0 133 2q57 -2 129 -2q104 -2 129 -2v65q-63 0 -98 7.5t-51 22.5t-20.5 41t-4.5 75v373q0 152 52.5 227.5t197.5 75.5q76 0 119 -23.5t62.5 -65.5t23.5 -91.5t4 -133.5v-362q0 -51 -6 -79t-20.5 -40t-40 -16t-82.5 -9q-10 0 -27 -2v-65q25 0 131 2 q72 0 129 2q59 -2 131 -2q106 -2 131 -2v65q-66 0 -100.5 6.5t-51 21.5t-21.5 41t-5 77v414q0 94 -10 156.5t-40 106.5t-88.5 66.5t-154.5 22.5q-115 0 -180.5 -27.5t-163.5 -107.5v114h-340v-61q70 -2 103.5 -7t51 -18.5t22.5 -40t5 -80.5v-538q0 -51 -6 -79t-20.5 -40 t-38 -16t-80.5 -9q-4 0 -37 -2v-65zM276 1124h68q8 49 40 74t71 25q31 0 86 -27l18 -8l25 -12q53 -25 88 -37.5t76 -12.5q96 0 150 62.5t79 167.5h-70q-6 -37 -36.5 -70t-73.5 -35q-39 0 -107 35l-12 6q-41 23 -90 40.5t-82 17.5q-92 0 -152.5 -65.5t-77.5 -160.5z" />
<glyph unicode="&#xf2;" d="M104 477q0 -246 105.5 -370.5t359.5 -126.5q254 2 359.5 126.5t105.5 370.5q0 254 -112.5 375t-352.5 121t-352.5 -121t-112.5 -375zM258 1360q0 -45 53 -74l322 -213h94l-309 324q-37 45 -78 45t-59 -33q-23 -18 -23 -49zM289 477q0 98 7 168t34.5 128t85 94t153.5 36 t153.5 -34.5t85.5 -94t35 -129.5t7 -168t-7 -168.5t-34 -129t-85 -94.5t-155 -36q-96 0 -153.5 36t-85 95.5t-34.5 129t-7 167.5z" />
<glyph unicode="&#xf3;" d="M104 477q0 -246 105.5 -370.5t359.5 -126.5q254 2 359.5 126.5t105.5 370.5q0 254 -112.5 375t-352.5 121t-352.5 -121t-112.5 -375zM289 477q0 98 7 168t34.5 128t85 94t153.5 36t153.5 -34.5t85.5 -94t35 -129.5t7 -168t-7 -168.5t-34 -129t-85 -94.5t-155 -36 q-96 0 -153.5 36t-85 95.5t-34.5 129t-7 167.5zM414 1073h94l321 213q53 29 54 74q0 31 -23 49q-18 33 -57 33q-43 0 -80 -45z" />
<glyph unicode="&#xf4;" d="M104 477q0 -246 105.5 -370.5t359.5 -126.5q254 2 359.5 126.5t105.5 370.5q0 254 -112.5 375t-352.5 121t-352.5 -121t-112.5 -375zM246 1073h88l237 211l236 -211h88l-254 346h-141zM289 477q0 98 7 168t34.5 128t85 94t153.5 36t153.5 -34.5t85.5 -94t35 -129.5 t7 -168t-7 -168.5t-34 -129t-85 -94.5t-155 -36q-96 0 -153.5 36t-85 95.5t-34.5 129t-7 167.5z" />
<glyph unicode="&#xf5;" d="M104 477q0 -246 105.5 -370.5t359.5 -126.5q254 2 359.5 126.5t105.5 370.5q0 254 -112.5 375t-352.5 121t-352.5 -121t-112.5 -375zM221 1124h68q8 49 39.5 74t70.5 25q31 0 86 -27l19 -8l24 -12q53 -25 88 -37.5t76 -12.5q96 0 150.5 62.5t79.5 167.5h-70 q-6 -37 -37 -70t-74 -35q-39 0 -106 35l-12 6q-41 23 -90.5 40.5t-81.5 17.5q-92 0 -152.5 -65.5t-77.5 -160.5zM289 477q0 98 7 168t34.5 128t85 94t153.5 36t153.5 -34.5t85.5 -94t35 -129.5t7 -168t-7 -168.5t-34 -129t-85 -94.5t-155 -36q-96 0 -153.5 36t-85 95.5 t-34.5 129t-7 167.5z" />
<glyph unicode="&#xf6;" d="M104 477q0 -246 105.5 -370.5t359.5 -126.5q254 2 359.5 126.5t105.5 370.5q0 254 -112.5 375t-352.5 121t-352.5 -121t-112.5 -375zM254 1282q0 -43 31.5 -75.5t76.5 -32.5t77 32.5t32 75.5q0 45 -31.5 78t-77.5 33q-45 0 -76.5 -33t-31.5 -78zM289 477q0 98 7 168 t34.5 128t85 94t153.5 36t153.5 -34.5t85.5 -94t35 -129.5t7 -168t-7 -168.5t-34 -129t-85 -94.5t-155 -36q-96 0 -153.5 36t-85 95.5t-34.5 129t-7 167.5zM670 1282q0 -45 33.5 -76.5t76.5 -31.5t76 32.5t33 75.5t-32 77t-77 34t-77.5 -33t-32.5 -78z" />
<glyph unicode="&#xf7;" horiz-adv-x="1241" d="M104 453h1033v131h-1033v-131zM512 113q0 -43 32 -76t77 -33t76.5 33t31.5 76q0 45 -31.5 77.5t-76.5 32.5t-77 -32.5t-32 -77.5zM512 922q0 -43 32 -76t77 -33t76.5 33t31.5 76q0 45 -31.5 77.5t-76.5 32.5t-77 -32.5t-32 -77.5z" />
<glyph unicode="&#xf8;" d="M47 -74l59 -49l152 186q109 -82 311 -83q254 2 359.5 126.5t105.5 370.5q0 262 -121 383l154 187l-59 47l-154 -187q-106 66 -285 66q-240 0 -352.5 -121t-112.5 -375q0 -246 99 -362zM289 477q0 98 7 168t34.5 128t85 94t153.5 36q147 0 211 -86l-471 -571 q-20 78 -20 231zM342 164l477 581q20 -51 25.5 -113.5t5.5 -154.5q0 -98 -7 -168.5t-34 -129t-85 -94.5t-155 -36q-88 0 -143 30t-84 85z" />
<glyph unicode="&#xf9;" horiz-adv-x="1251" d="M39 891q68 0 103.5 -6t52 -21.5t21.5 -41t5 -74.5v-510q0 -143 79 -200.5t228 -57.5q80 0 176.5 37.5t141.5 97.5v-119q37 2 84 2q45 0 82 2q16 0 92 -2q49 0 92 -2v65q-68 0 -103.5 6.5t-52 21.5t-21.5 41t-5 75v747h-340v-61q117 0 144.5 -26.5t27.5 -116.5v-332 q0 -86 -7.5 -144.5t-31 -105.5t-74.5 -73.5t-137 -26.5q-70 0 -113 20t-62.5 57t-25.5 84t-6 119v606h-350v-61zM313 1360q0 -45 54 -74l321 -213h94l-309 324q-37 45 -78 45t-59 -33q-23 -18 -23 -49z" />
<glyph unicode="&#xfa;" horiz-adv-x="1251" d="M39 891q68 0 103.5 -6t52 -21.5t21.5 -41t5 -74.5v-510q0 -143 79 -200.5t228 -57.5q80 0 176.5 37.5t141.5 97.5v-119q37 2 84 2q45 0 82 2q16 0 92 -2q49 0 92 -2v65q-68 0 -103.5 6.5t-52 21.5t-21.5 41t-5 75v747h-340v-61q117 0 144.5 -26.5t27.5 -116.5v-332 q0 -86 -7.5 -144.5t-31 -105.5t-74.5 -73.5t-137 -26.5q-70 0 -113 20t-62.5 57t-25.5 84t-6 119v606h-350v-61zM469 1073h94l322 213q53 29 53 74q0 31 -23 49q-18 33 -57 33q-43 0 -80 -45z" />
<glyph unicode="&#xfb;" horiz-adv-x="1251" d="M39 891q68 0 103.5 -6t52 -21.5t21.5 -41t5 -74.5v-510q0 -143 79 -200.5t228 -57.5q80 0 176.5 37.5t141.5 97.5v-119q37 2 84 2q45 0 82 2q16 0 92 -2q49 0 92 -2v65q-68 0 -103.5 6.5t-52 21.5t-21.5 41t-5 75v747h-340v-61q117 0 144.5 -26.5t27.5 -116.5v-332 q0 -86 -7.5 -144.5t-31 -105.5t-74.5 -73.5t-137 -26.5q-70 0 -113 20t-62.5 57t-25.5 84t-6 119v606h-350v-61zM301 1073h88l238 211l235 -211h88l-254 346h-141z" />
<glyph unicode="&#xfc;" horiz-adv-x="1251" d="M39 891q68 0 103.5 -6t52 -21.5t21.5 -41t5 -74.5v-510q0 -143 79 -200.5t228 -57.5q80 0 176.5 37.5t141.5 97.5v-119q37 2 84 2q45 0 82 2q16 0 92 -2q49 0 92 -2v65q-68 0 -103.5 6.5t-52 21.5t-21.5 41t-5 75v747h-340v-61q117 0 144.5 -26.5t27.5 -116.5v-332 q0 -86 -7.5 -144.5t-31 -105.5t-74.5 -73.5t-137 -26.5q-70 0 -113 20t-62.5 57t-25.5 84t-6 119v606h-350v-61zM309 1282q0 -43 32 -75.5t77 -32.5t76.5 32.5t31.5 75.5q0 45 -31.5 78t-76.5 33t-77 -33t-32 -78zM725 1282q0 -45 34 -76.5t77 -31.5t75.5 32.5t32.5 75.5 t-31.5 77t-76.5 34t-78 -33t-33 -78z" />
<glyph unicode="&#xfd;" d="M33 895q57 0 88 -5t48 -18.5t29.5 -37t34.5 -78.5q16 -43 19 -47l260 -709h66q-2 -8 -15 -45q-20 -66 -39.5 -120t-49.5 -111.5t-66.5 -94.5t-77.5 -37q-4 0 -11 2h-8q-31 6 -80 52q-27 23 -45 35t-41 12t-49 -17q-23 -14 -22 -71q12 -63 57 -90t109 -27q82 0 144 39 t106.5 101.5t72 130t64.5 167.5q16 47 28 80l273 694v2q43 111 71.5 149t98.5 44v61q-41 -2 -92 -2q-53 0 -95 -2q-43 2 -94 2t-94 2v-61q74 0 114 -13.5t40 -58.5q0 -18 -13 -47l-225 -641l-242 668q-6 23 -6 37q2 31 31 41t78 12q12 2 18 2v61q-53 -2 -121 -2t-121 -2 q-55 2 -120 2q-68 0 -123 2v-61zM414 1073h94l321 213q53 29 54 74q0 31 -23 49q-18 33 -57 33q-43 0 -80 -45z" />
<glyph unicode="&#xfe;" horiz-adv-x="1251" d="M61 -451v-65q23 0 134 2q74 0 133 2q53 -2 147 -2q94 -2 146 -2v65q-76 0 -115 4.5t-59.5 17.5t-28.5 41t-8 81v391q61 -51 121.5 -77.5t134.5 -26.5q246 0 352 129t106 383q0 106 -21.5 193t-68.5 151.5t-125 100.5t-186 36q-100 0 -181 -34t-128 -110h-4v697h-349v-66 q66 0 102 -6t52 -21.5t21.5 -41t5.5 -74.5v-1624q0 -94 -24.5 -114.5t-119.5 -27.5q-2 0 -37 -2zM410 285v364q0 113 68.5 179.5t187.5 66.5q88 0 143 -33t84 -89t38 -125.5t9 -158.5q0 -102 -7 -173.5t-35 -131t-87 -94.5t-158 -35q-109 0 -176 61.5t-67 168.5z" />
<glyph unicode="&#xff;" d="M33 895q57 0 88 -5t48 -18.5t29.5 -37t34.5 -78.5q16 -43 19 -47l260 -709h66q-2 -8 -15 -45q-20 -66 -39.5 -120t-49.5 -111.5t-66.5 -94.5t-77.5 -37q-4 0 -11 2h-8q-31 6 -80 52q-27 23 -45 35t-41 12t-49 -17q-23 -14 -22 -71q12 -63 57 -90t109 -27q82 0 144 39 t106.5 101.5t72 130t64.5 167.5q16 47 28 80l273 694v2q43 111 71.5 149t98.5 44v61q-41 -2 -92 -2q-53 0 -95 -2q-43 2 -94 2t-94 2v-61q74 0 114 -13.5t40 -58.5q0 -18 -13 -47l-225 -641l-242 668q-6 23 -6 37q2 31 31 41t78 12q12 2 18 2v61q-53 -2 -121 -2t-121 -2 q-55 2 -120 2q-68 0 -123 2v-61zM254 1282q0 -43 31.5 -75.5t76.5 -32.5t77 32.5t32 75.5q0 45 -31.5 78t-77.5 33q-45 0 -76.5 -33t-31.5 -78zM670 1282q0 -45 33.5 -76.5t76.5 -31.5t76 32.5t33 75.5t-32 77t-77 34t-77.5 -33t-32.5 -78z" />
<glyph unicode="&#x152;" horiz-adv-x="2048" d="M59 711q0 -168 31 -300t99.5 -228.5t187.5 -149.5t291 -53q45 0 110.5 11t131 32.5t118.5 53.5t76 73h4v-150h866v430h-108q-12 -119 -23.5 -179.5t-36 -93t-67.5 -43t-129 -12.5h-320v611h125q80 0 117 -4t58.5 -23.5t29.5 -58.5t10 -119h90v487h-90q0 -78 -8 -117.5 t-29.5 -58t-59.5 -23.5t-118 -5h-125v538h320q88 -2 134 -11t68.5 -35t31.5 -66.5t20 -139.5q0 -6 2 -28h108v364h-866v-131l-21 23q-74 84 -173 111.5t-234 27.5q-162 0 -280.5 -51.5t-193.5 -148.5t-111 -231t-36 -302zM268 662q0 162 10.5 274.5t50.5 215.5t129 165.5 t238 62.5q205 0 304.5 -87t99.5 -279v-443q0 -117 -19.5 -210t-66.5 -162.5t-129 -108.5t-205 -39t-205 52.5t-127 140.5t-62.5 193.5t-17.5 224.5z" />
<glyph unicode="&#x153;" horiz-adv-x="1705" d="M92 510q0 -131 21.5 -227.5t72 -164t138.5 -103t219 -35.5q106 0 202.5 31.5t147.5 105.5q51 -74 132 -103.5t204 -29.5q160 0 258 83t110 216v6l2 4q0 23 -18 29t-49 6q-33 0 -51.5 -7.5t-20.5 -35.5q-23 -131 -71 -184.5t-177 -53.5h-14q-10 -2 -14 -2q-63 0 -104.5 37 t-63 96.5t-29.5 133t-8 161.5h637q-6 125 -21.5 211t-55.5 151.5t-118 101.5t-202 36q-193 0 -322 -142q-63 80 -146 111t-198 31q-461 0 -461 -463zM274 477q0 94 9.5 166t36 131.5t81 94t142.5 34.5t142 -31.5t81 -89t36 -130t9 -175.5q0 -102 -9 -175t-36 -129t-81 -89 t-142 -33t-142.5 35t-81 94.5t-36 131t-9.5 165.5zM977 543q2 82 10 142t32.5 110.5t74 80t129.5 29.5q68 0 109.5 -34.5t62 -89t26.5 -113t6 -125.5h-450z" />
<glyph unicode="&#x178;" horiz-adv-x="1478" d="M43 1352q104 -10 157.5 -58.5t137.5 -183.5q41 -66 65 -102l195 -310q35 -53 43 -79.5t8 -90.5v-323q0 -51 -9 -79t-30.5 -41t-57.5 -16t-112 -3v-70q70 2 150 2q123 2 151 2q29 0 152 -2q80 0 149 -2v70q-74 0 -110.5 3t-58 16t-30.5 41t-9 79v315q0 27 10 62.5t33 72.5 l286 455q10 16 37 61q53 90 96 130t131 51v65q-49 -2 -110 -2t-111 -2q-49 2 -110 2t-111 2v-65q27 0 48.5 -1t44 -8.5t37.5 -21.5t15 -39q0 -23 -10 -47.5t-26 -46.5l-281 -492l-309 510l-6 11q-23 35 -23 55v4v6q8 41 40 52.5t99 15.5q23 2 33 2v65q-68 -2 -149 -2 q-84 0 -152 -2q-68 2 -151 2q-84 0 -152 2v-65zM455 1722q0 -43 31.5 -75.5t76.5 -32.5t77 32.5t32 75.5q0 45 -32 78t-77 33t-76.5 -33t-31.5 -78zM870 1722q0 -45 34 -76.5t77 -31.5t76 32.5t33 75.5t-32 77t-77 34t-78 -33t-33 -78z" />
<glyph unicode="&#x2c6;" horiz-adv-x="681" d="M16 1073h88l238 211l236 -211h88l-254 346h-142z" />
<glyph unicode="&#x2dc;" horiz-adv-x="681" d="M-8 1124h67q8 49 40 74t71 25q31 0 86 -27l18 -8l25 -12q53 -25 88 -37.5t76 -12.5q96 0 150.5 62.5t78.5 167.5h-69q-6 -37 -37 -70t-74 -35q-39 0 -106 35q-8 4 -13 6q-41 23 -90 40.5t-82 17.5q-92 0 -152.5 -65.5t-76.5 -160.5z" />
<glyph unicode="&#x2000;" horiz-adv-x="949" />
<glyph unicode="&#x2001;" horiz-adv-x="1898" />
<glyph unicode="&#x2002;" horiz-adv-x="949" />
<glyph unicode="&#x2003;" horiz-adv-x="1898" />
<glyph unicode="&#x2004;" horiz-adv-x="632" />
<glyph unicode="&#x2005;" horiz-adv-x="474" />
<glyph unicode="&#x2006;" horiz-adv-x="316" />
<glyph unicode="&#x2007;" horiz-adv-x="316" />
<glyph unicode="&#x2008;" horiz-adv-x="237" />
<glyph unicode="&#x2009;" horiz-adv-x="379" />
<glyph unicode="&#x200a;" horiz-adv-x="105" />
<glyph unicode="&#x2010;" horiz-adv-x="681" d="M90 432h502v152h-502v-152z" />
<glyph unicode="&#x2011;" horiz-adv-x="681" d="M90 432h502v152h-502v-152z" />
<glyph unicode="&#x2012;" horiz-adv-x="681" d="M90 432h502v152h-502v-152z" />
<glyph unicode="&#x2013;" d="M0 442h1139v133h-1139v-133z" />
<glyph unicode="&#x2014;" horiz-adv-x="2048" d="M0 442h2048v133h-2048v-133z" />
<glyph unicode="&#x2018;" horiz-adv-x="569" d="M133 1073q0 -66 33 -114t96 -48q53 0 84 38t31 91t-34 86t-85 33h-12q-10 -2 -15 -2q2 72 53.5 133.5t123.5 87.5l-33 56q-123 -68 -182.5 -150t-59.5 -211z" />
<glyph unicode="&#x2019;" horiz-adv-x="569" d="M152 967l32 -56q123 68 182.5 150t59.5 211q0 66 -33 114t-96 48q-53 0 -84 -38t-31 -91t34 -86t85 -33h12q10 2 15 2q-2 -72 -53.5 -132.5t-122.5 -88.5z" />
<glyph unicode="&#x201a;" horiz-adv-x="569" d="M147 -211l33 -55q119 63 180.5 148t61.5 210q0 84 -33 117t-96 43q-49 0 -83 -34t-34 -95q0 -35 17.5 -64.5t48.5 -42.5q16 -10 39 -10q8 0 20 2h21q0 -72 -53.5 -132t-121.5 -87z" />
<glyph unicode="&#x201c;" horiz-adv-x="1024" d="M133 1073q0 -66 33 -114t96 -48q53 0 84 38t31 91t-34 86t-85 33h-12q-10 -2 -15 -2q2 72 53.5 133.5t123.5 87.5l-33 56q-123 -68 -182.5 -150t-59.5 -211zM582 1073q0 -68 31.5 -115t97.5 -47q51 0 82.5 39t31.5 90q0 53 -33.5 86t-84.5 33h-13q-10 -2 -14 -2 q0 68 44 122t110 91q4 2 12 4q6 2 10 4l-33 56q-123 -68 -182 -150t-59 -211z" />
<glyph unicode="&#x201d;" horiz-adv-x="1024" d="M168 967l33 -56q123 68 182 150t59 211q0 66 -32.5 114t-96.5 48q-53 0 -83.5 -38t-30.5 -91t33.5 -86t84.5 -33h13q10 2 14 2q-2 -72 -53 -132.5t-123 -88.5zM616 967l33 -56q123 68 182.5 150t59.5 211q0 66 -33 114t-96 48q-53 0 -84 -38t-31 -91t34 -86t85 -33h12 q10 2 15 2q-2 -72 -53.5 -132.5t-123.5 -88.5z" />
<glyph unicode="&#x201e;" horiz-adv-x="1024" d="M152 -211l32 -55q119 63 180.5 148t61.5 210q0 84 -33 117t-96 43q-49 0 -83 -34t-34 -95q0 -35 17.5 -64.5t48.5 -42.5q16 -10 39 -10q8 0 20 2h21q0 -72 -53.5 -132t-120.5 -87zM600 -211l33 -55q119 63 180 148t61 210q0 84 -32.5 117t-96.5 43q-49 0 -82.5 -34 t-33.5 -95q0 -35 17.5 -64.5t47.5 -42.5q16 -10 39 -10q8 0 21 2h20q0 -72 -53 -132t-121 -87z" />
<glyph unicode="&#x2022;" horiz-adv-x="1241" d="M268 707q0 -72 28 -135.5t77 -112.5t112.5 -77t135.5 -28t135 28t112.5 77t77 112.5t27.5 135.5t-27.5 135t-77 112.5t-113 77t-134.5 27.5q-72 0 -135.5 -27.5t-112.5 -77t-77 -112.5t-28 -135z" />
<glyph unicode="&#x2026;" horiz-adv-x="2048" d="M227 115q0 -57 31 -96t84 -39t84 38.5t31 96.5q0 57 -31 96t-84 39t-84 -39t-31 -96zM911 115q0 -57 31 -96t84 -39t84 38.5t31 96.5q0 57 -31 96t-84 39t-84 -39t-31 -96zM1595 115q0 -57 31 -96t84 -39t84 38.5t31 96.5q0 57 -31 96t-84 39t-84 -39t-31 -96z" />
<glyph unicode="&#x202f;" horiz-adv-x="379" />
<glyph unicode="&#x2039;" horiz-adv-x="569" d="M80 481l313 -383h80v13l-250 397l250 401v13h-80l-313 -385v-56z" />
<glyph unicode="&#x203a;" horiz-adv-x="569" d="M76 94h80l313 385v58l-313 381h-80v-13l252 -397l-252 -402v-12z" />
<glyph unicode="&#x205f;" horiz-adv-x="474" />
<glyph unicode="&#x2122;" horiz-adv-x="2004" d="M72 1210h53q0 84 32.5 115t116.5 31h93v-631q0 -66 -17.5 -78t-111.5 -14v-47h389v47q-92 2 -110.5 16.5t-18.5 75.5v631h92q86 0 117.5 -31t31.5 -115h54v203h-721v-203zM911 586h260v47q-68 4 -84 19.5t-16 78.5v588h4l305 -733h19l301 733h4v-588q0 -63 -16.5 -78.5 t-83.5 -19.5v-47h331v47q-68 4 -84 19.5t-16 78.5v565q0 45 9 59.5t48 14.5h43v43h-252l-256 -600l-253 600h-246v-43h30q37 0 45.5 -12t8.5 -62v-565q0 -63 -16.5 -78.5t-84.5 -19.5v-47z" />
<glyph unicode="&#x25fc;" horiz-adv-x="952" d="M0 0v952h952v-952h-952z" />
</font>
</defs>
</svg>
