<?xml version="1.0" encoding="UTF-8" standalone="no"?>
<svg width="264px" height="91px" viewBox="0 0 264 91" version="1.1" xmlns="http://www.w3.org/2000/svg" xmlns:xlink="http://www.w3.org/1999/xlink" xmlns:sketch="http://www.bohemiancoding.com/sketch/ns">
    <!-- Generator: Sketch 3.0.3 (7891) - http://www.bohemiancoding.com/sketch -->
    <title>Untitled</title>
    <desc>Created with Sketch.</desc>
    <defs></defs>
    <g id="Page-1" stroke="none" stroke-width="1" fill="none" fill-rule="evenodd" sketch:type="MSPage">
        <g id="DPSYI_AER_Logo_Web_RGB" sketch:type="MSLayerGroup">
            <path d="M-0.178,1.717 L13.205,1.717 L13.205,62.109 L-0.178,62.109 L-0.178,1.717 Z" id="Fill-1" fill="#9F9264" sketch:type="MSShapeGroup"></path>
            <path d="M26.881,83.398 C26.57,83.398 26.259,83.367 25.949,83.367 C25.155,83.367 23.196,83.492 23.196,84.893 C23.196,85.732 24.005,86.182 24.673,86.182 C26.12,86.182 26.881,85.281 26.881,84.1 L26.881,83.398 L26.881,83.398 Z M22.543,79.807 C23.274,79.371 24.145,79.061 25.155,79.061 C27.426,79.061 28.343,80.18 28.343,82.342 L28.343,85.623 C28.343,86.525 28.374,86.943 28.405,87.178 L27.037,87.178 L27.037,86.15 L27.006,86.15 C26.664,86.633 25.886,87.363 24.549,87.363 C22.839,87.363 21.642,86.617 21.642,84.893 C21.642,82.902 23.818,82.279 25.327,82.279 C25.902,82.279 26.306,82.279 26.881,82.311 C26.881,80.943 26.384,80.242 24.922,80.242 C24.098,80.242 23.212,80.555 22.621,81.051 L22.543,79.807 L22.543,79.807 Z" id="Fill-2" fill="#0B0B0A" sketch:type="MSShapeGroup"></path>
            <path d="M33.51,86.182 C35.159,86.182 35.843,84.549 35.843,83.228 C35.843,81.752 35.081,80.242 33.495,80.242 C31.909,80.242 31.287,81.736 31.318,83.182 C31.287,84.426 31.94,86.182 33.51,86.182 L33.51,86.182 Z M35.905,86.059 L35.873,86.059 C35.485,86.648 34.583,87.363 33.168,87.363 C30.774,87.363 29.763,85.234 29.763,83.072 C29.763,80.943 30.883,79.061 33.184,79.061 C34.568,79.061 35.361,79.605 35.811,80.336 L35.843,80.336 L35.843,75.516 L37.304,75.516 L37.304,87.178 L35.905,87.178 L35.905,86.059 L35.905,86.059 Z" id="Fill-3" fill="#0B0B0A" sketch:type="MSShapeGroup"></path>
            <path d="M42.819,87.178 L41.078,87.178 L38.232,79.248 L39.834,79.248 L41.98,85.717 L42.011,85.717 L44.203,79.248 L45.665,79.248 L42.819,87.178" id="Fill-4" fill="#0B0B0A" sketch:type="MSShapeGroup"></path>
            <path d="M51.045,83.398 C50.734,83.398 50.423,83.367 50.112,83.367 C49.319,83.367 47.36,83.492 47.36,84.893 C47.36,85.732 48.168,86.182 48.837,86.182 C50.283,86.182 51.045,85.281 51.045,84.1 L51.045,83.398 L51.045,83.398 Z M46.707,79.807 C47.437,79.371 48.309,79.061 49.319,79.061 C51.589,79.061 52.506,80.18 52.506,82.342 L52.506,85.623 C52.506,86.525 52.538,86.943 52.569,87.178 L51.201,87.178 L51.201,86.15 L51.169,86.15 C50.827,86.633 50.05,87.363 48.713,87.363 C47.002,87.363 45.805,86.617 45.805,84.893 C45.805,82.902 47.982,82.279 49.49,82.279 C50.065,82.279 50.47,82.279 51.045,82.311 C51.045,80.943 50.547,80.242 49.086,80.242 C48.262,80.242 47.375,80.555 46.785,81.051 L46.707,79.807 L46.707,79.807 Z" id="Fill-5" fill="#0B0B0A" sketch:type="MSShapeGroup"></path>
            <path d="M54.379,79.248 L55.794,79.248 L55.794,80.508 L55.825,80.508 C56.261,79.605 57.318,79.061 58.422,79.061 C60.474,79.061 61.392,80.336 61.392,82.467 L61.392,87.178 L59.93,87.178 L59.93,83.072 C59.93,81.223 59.526,80.32 58.251,80.242 C56.587,80.242 55.841,81.58 55.841,83.508 L55.841,87.178 L54.379,87.178 L54.379,79.248" id="Fill-6" fill="#0B0B0A" sketch:type="MSShapeGroup"></path>
            <path d="M68.34,80.584 C67.78,80.352 67.221,80.242 66.754,80.242 C65.122,80.242 64.204,81.705 64.204,83.213 C64.204,84.627 64.966,86.182 66.848,86.182 C67.345,86.182 67.967,86.027 68.418,85.732 L68.527,87.037 C67.92,87.318 67.221,87.363 66.692,87.363 C64.298,87.363 62.649,85.482 62.649,83.213 C62.649,80.803 64.267,79.061 66.692,79.061 C67.283,79.061 68.045,79.201 68.465,79.371 L68.34,80.584" id="Fill-7" fill="#0B0B0A" sketch:type="MSShapeGroup"></path>
            <path d="M69.754,79.248 L71.215,79.248 L71.215,87.178 L69.754,87.178 L69.754,79.248 Z M69.661,75.826 L71.309,75.826 L71.309,77.475 L69.661,77.475 L69.661,75.826 Z" id="Fill-8" fill="#0B0B0A" sketch:type="MSShapeGroup"></path>
            <path d="M73.144,79.248 L74.558,79.248 L74.558,80.508 L74.589,80.508 C75.025,79.605 76.082,79.061 77.186,79.061 C79.238,79.061 80.156,80.336 80.156,82.467 L80.156,87.178 L78.694,87.178 L78.694,83.072 C78.694,81.223 78.29,80.32 77.015,80.242 C75.351,80.242 74.605,81.58 74.605,83.508 L74.605,87.178 L73.144,87.178 L73.144,79.248" id="Fill-9" fill="#0B0B0A" sketch:type="MSShapeGroup"></path>
            <path d="M87.509,83.307 C87.509,81.658 86.747,80.242 85.192,80.242 C83.715,80.242 82.984,81.844 82.984,83.197 C82.984,84.689 83.824,85.996 85.192,85.996 C86.561,85.996 87.509,84.783 87.509,83.307 L87.509,83.307 Z M88.971,86.836 C88.971,89.246 87.727,90.629 84.881,90.629 C84.042,90.629 83.311,90.519 82.036,90.086 L82.191,88.732 C83.311,89.246 83.979,89.447 85.052,89.447 C86.592,89.447 87.509,88.406 87.509,86.727 L87.509,85.949 L87.478,85.949 C86.856,86.773 85.83,87.178 84.819,87.178 C82.549,87.178 81.43,85.328 81.43,83.275 C81.43,81.238 82.58,79.061 84.975,79.061 C86.374,79.061 87.151,79.574 87.587,80.43 L87.618,80.43 L87.618,79.248 L88.971,79.248 L88.971,86.836 L88.971,86.836 Z" id="Fill-10" fill="#0B0B0A" sketch:type="MSShapeGroup"></path>
            <path d="M99.978,82.451 C99.978,81.238 99.262,80.242 98.003,80.242 C96.572,80.242 95.981,81.424 95.872,82.451 L99.978,82.451 L99.978,82.451 Z M100.925,86.852 C100.366,87.053 99.728,87.363 98.423,87.363 C95.608,87.363 94.317,85.654 94.317,83.072 C94.317,80.725 95.794,79.061 98.033,79.061 C100.677,79.061 101.532,80.988 101.532,83.539 L95.872,83.539 C95.872,85.109 97.101,86.182 98.484,86.182 C99.448,86.182 100.567,85.686 100.925,85.389 L100.925,86.852 L100.925,86.852 Z" id="Fill-11" fill="#0B0B0A" sketch:type="MSShapeGroup"></path>
            <path d="M106.366,86.182 C108.015,86.182 108.698,84.549 108.698,83.228 C108.698,81.752 107.937,80.242 106.351,80.242 C104.765,80.242 104.143,81.736 104.174,83.182 C104.143,84.426 104.796,86.182 106.366,86.182 L106.366,86.182 Z M108.761,86.059 L108.729,86.059 C108.341,86.648 107.438,87.363 106.024,87.363 C103.63,87.363 102.619,85.234 102.619,83.072 C102.619,80.943 103.739,79.061 106.04,79.061 C107.424,79.061 108.217,79.605 108.667,80.336 L108.698,80.336 L108.698,75.516 L110.16,75.516 L110.16,87.178 L108.761,87.178 L108.761,86.059 L108.761,86.059 Z" id="Fill-12" fill="#0B0B0A" sketch:type="MSShapeGroup"></path>
            <path d="M118.757,87.178 L117.343,87.178 L117.343,85.918 L117.312,85.918 C116.876,86.82 115.819,87.363 114.715,87.363 C112.662,87.363 111.745,86.09 111.745,83.959 L111.745,79.248 L113.206,79.248 L113.206,83.352 C113.206,85.203 113.61,86.105 114.886,86.182 C116.55,86.182 117.296,84.846 117.296,82.918 L117.296,79.248 L118.757,79.248 L118.757,87.178" id="Fill-13" fill="#0B0B0A" sketch:type="MSShapeGroup"></path>
            <path d="M125.753,80.584 C125.193,80.352 124.634,80.242 124.167,80.242 C122.534,80.242 121.616,81.705 121.616,83.213 C121.616,84.627 122.379,86.182 124.261,86.182 C124.758,86.182 125.38,86.027 125.831,85.732 L125.939,87.037 C125.333,87.318 124.634,87.363 124.104,87.363 C121.71,87.363 120.062,85.482 120.062,83.213 C120.062,80.803 121.679,79.061 124.104,79.061 C124.695,79.061 125.458,79.201 125.878,79.371 L125.753,80.584" id="Fill-14" fill="#0B0B0A" sketch:type="MSShapeGroup"></path>
            <path d="M131.972,83.398 C131.66,83.398 131.349,83.367 131.038,83.367 C130.245,83.367 128.286,83.492 128.286,84.893 C128.286,85.732 129.095,86.182 129.763,86.182 C131.21,86.182 131.972,85.281 131.972,84.1 L131.972,83.398 L131.972,83.398 Z M127.634,79.807 C128.364,79.371 129.235,79.061 130.245,79.061 C132.516,79.061 133.432,80.18 133.432,82.342 L133.432,85.623 C133.432,86.525 133.463,86.943 133.495,87.178 L132.127,87.178 L132.127,86.15 L132.096,86.15 C131.753,86.633 130.976,87.363 129.64,87.363 C127.929,87.363 126.731,86.617 126.731,84.893 C126.731,82.902 128.908,82.279 130.417,82.279 C130.991,82.279 131.396,82.279 131.972,82.311 C131.972,80.943 131.474,80.242 130.013,80.242 C129.188,80.242 128.302,80.555 127.711,81.051 L127.634,79.807 L127.634,79.807 Z" id="Fill-15" fill="#0B0B0A" sketch:type="MSShapeGroup"></path>
            <path d="M139.538,80.43 L137.438,80.43 L137.438,84.768 C137.438,85.686 137.999,86.182 138.667,86.182 C139.118,86.182 139.444,86.043 139.663,85.902 L139.663,87.146 C139.334,87.24 138.885,87.363 138.418,87.363 C136.911,87.363 135.977,86.648 135.977,85.062 L135.977,80.43 L134.188,80.43 L134.188,79.248 L135.977,79.248 L135.977,77.412 L137.438,76.947 L137.438,79.248 L139.538,79.248 L139.538,80.43" id="Fill-16" fill="#0B0B0A" sketch:type="MSShapeGroup"></path>
            <path d="M140.823,79.248 L142.284,79.248 L142.284,87.178 L140.823,87.178 L140.823,79.248 Z M140.729,75.826 L142.377,75.826 L142.377,77.475 L140.729,77.475 L140.729,75.826 Z" id="Fill-17" fill="#0B0B0A" sketch:type="MSShapeGroup"></path>
            <path d="M147.584,86.182 C149.295,86.182 150.057,84.627 150.057,83.213 C150.057,81.705 149.141,80.242 147.584,80.242 C146.014,80.242 145.098,81.705 145.098,83.213 C145.098,84.627 145.86,86.182 147.584,86.182 L147.584,86.182 Z M147.584,79.061 C149.995,79.061 151.612,80.803 151.612,83.213 C151.612,85.482 149.963,87.363 147.584,87.363 C145.19,87.363 143.543,85.482 143.543,83.213 C143.543,80.803 145.161,79.061 147.584,79.061 L147.584,79.061 Z" id="Fill-18" fill="#0B0B0A" sketch:type="MSShapeGroup"></path>
            <path d="M152.963,79.248 L154.379,79.248 L154.379,80.508 L154.411,80.508 C154.846,79.605 155.903,79.061 157.006,79.061 C159.059,79.061 159.977,80.336 159.977,82.467 L159.977,87.178 L158.514,87.178 L158.514,83.072 C158.514,81.223 158.11,80.32 156.836,80.242 C155.172,80.242 154.426,81.58 154.426,83.508 L154.426,87.178 L152.963,87.178 L152.963,79.248" id="Fill-19" fill="#0B0B0A" sketch:type="MSShapeGroup"></path>
            <path d="M169.864,83.398 C169.553,83.398 169.241,83.367 168.93,83.367 C168.137,83.367 166.178,83.492 166.178,84.893 C166.178,85.732 166.987,86.182 167.655,86.182 C169.102,86.182 169.864,85.281 169.864,84.1 L169.864,83.398 L169.864,83.398 Z M165.526,79.807 C166.256,79.371 167.127,79.061 168.137,79.061 C170.409,79.061 171.325,80.18 171.325,82.342 L171.325,85.623 C171.325,86.525 171.356,86.943 171.387,87.178 L170.02,87.178 L170.02,86.15 L169.989,86.15 C169.645,86.633 168.868,87.363 167.532,87.363 C165.821,87.363 164.624,86.617 164.624,84.893 C164.624,82.902 166.801,82.279 168.309,82.279 C168.883,82.279 169.288,82.279 169.864,82.311 C169.864,80.943 169.366,80.242 167.905,80.242 C167.081,80.242 166.194,80.555 165.604,81.051 L165.526,79.807 L165.526,79.807 Z" id="Fill-20" fill="#0B0B0A" sketch:type="MSShapeGroup"></path>
            <path d="M173.198,79.248 L174.612,79.248 L174.612,80.508 L174.643,80.508 C175.079,79.605 176.135,79.061 177.241,79.061 C179.292,79.061 180.209,80.336 180.209,82.467 L180.209,87.178 L178.749,87.178 L178.749,83.072 C178.749,81.223 178.344,80.32 177.069,80.242 C175.405,80.242 174.659,81.58 174.659,83.508 L174.659,87.178 L173.198,87.178 L173.198,79.248" id="Fill-21" fill="#0B0B0A" sketch:type="MSShapeGroup"></path>
            <path d="M185.247,86.182 C186.895,86.182 187.579,84.549 187.579,83.228 C187.579,81.752 186.817,80.242 185.231,80.242 C183.645,80.242 183.024,81.736 183.053,83.182 C183.024,84.426 183.676,86.182 185.247,86.182 L185.247,86.182 Z M187.641,86.059 L187.61,86.059 C187.221,86.648 186.319,87.363 184.905,87.363 C182.51,87.363 181.499,85.234 181.499,83.072 C181.499,80.943 182.62,79.061 184.92,79.061 C186.303,79.061 187.096,79.605 187.547,80.336 L187.579,80.336 L187.579,75.516 L189.04,75.516 L189.04,87.178 L187.641,87.178 L187.641,86.059 L187.641,86.059 Z" id="Fill-22" fill="#0B0B0A" sketch:type="MSShapeGroup"></path>
            <path d="M194.917,79.248 L196.284,79.248 L196.284,80.477 L196.315,80.477 C196.704,79.652 197.543,79.061 198.383,79.061 C198.819,79.061 199.036,79.107 199.346,79.17 L199.346,80.477 C199.083,80.367 198.788,80.336 198.538,80.336 C197.233,80.336 196.377,81.58 196.377,83.57 L196.377,87.178 L194.917,87.178 L194.917,79.248" id="Fill-23" fill="#0B0B0A" sketch:type="MSShapeGroup"></path>
            <path d="M205.446,82.451 C205.446,81.238 204.731,80.242 203.471,80.242 C202.042,80.242 201.45,81.424 201.34,82.451 L205.446,82.451 L205.446,82.451 Z M206.395,86.852 C205.834,87.053 205.198,87.363 203.891,87.363 C201.077,87.363 199.786,85.654 199.786,83.072 C199.786,80.725 201.264,79.061 203.502,79.061 C206.145,79.061 207,80.988 207,83.539 L201.34,83.539 C201.34,85.109 202.569,86.182 203.954,86.182 C204.917,86.182 206.038,85.686 206.395,85.389 L206.395,86.852 L206.395,86.852 Z" id="Fill-24" fill="#0B0B0A" sketch:type="MSShapeGroup"></path>
            <path d="M207.967,85.623 C208.543,85.996 209.368,86.182 209.788,86.182 C210.456,86.182 211.28,85.902 211.28,85.047 C211.28,83.602 207.844,83.727 207.844,81.502 C207.844,79.853 209.073,79.061 210.643,79.061 C211.327,79.061 211.887,79.201 212.461,79.371 L212.338,80.646 C212.01,80.445 211.141,80.242 210.797,80.242 C210.051,80.242 209.399,80.555 209.399,81.207 C209.399,82.824 212.834,82.357 212.834,84.893 C212.834,86.586 211.483,87.363 210.067,87.363 C209.321,87.363 208.559,87.287 207.891,86.928 L207.967,85.623" id="Fill-25" fill="#0B0B0A" sketch:type="MSShapeGroup"></path>
            <path d="M219.272,82.451 C219.272,81.238 218.555,80.242 217.297,80.242 C215.866,80.242 215.276,81.424 215.167,82.451 L219.272,82.451 L219.272,82.451 Z M220.219,86.852 C219.661,87.053 219.022,87.363 217.717,87.363 C214.903,87.363 213.612,85.654 213.612,83.072 C213.612,80.725 215.088,79.061 217.327,79.061 C219.971,79.061 220.827,80.988 220.827,83.539 L215.167,83.539 C215.167,85.109 216.395,86.182 217.778,86.182 C218.743,86.182 219.862,85.686 220.219,85.389 L220.219,86.852 L220.219,86.852 Z" id="Fill-26" fill="#0B0B0A" sketch:type="MSShapeGroup"></path>
            <path d="M226.862,83.398 C226.549,83.398 226.239,83.367 225.928,83.367 C225.135,83.367 223.176,83.492 223.176,84.893 C223.176,85.732 223.985,86.182 224.653,86.182 C226.1,86.182 226.862,85.281 226.862,84.1 L226.862,83.398 L226.862,83.398 Z M222.524,79.807 C223.254,79.371 224.125,79.061 225.135,79.061 C227.405,79.061 228.323,80.18 228.323,82.342 L228.323,85.623 C228.323,86.525 228.354,86.943 228.385,87.178 L227.016,87.178 L227.016,86.15 L226.985,86.15 C226.643,86.633 225.866,87.363 224.53,87.363 C222.819,87.363 221.622,86.617 221.622,84.893 C221.622,82.902 223.797,82.279 225.307,82.279 C225.881,82.279 226.286,82.279 226.862,82.311 C226.862,80.943 226.364,80.242 224.903,80.242 C224.079,80.242 223.192,80.555 222.6,81.051 L222.524,79.807 L222.524,79.807 Z" id="Fill-27" fill="#0B0B0A" sketch:type="MSShapeGroup"></path>
            <path d="M230.196,79.248 L231.563,79.248 L231.563,80.477 L231.594,80.477 C231.983,79.652 232.823,79.061 233.663,79.061 C234.098,79.061 234.315,79.107 234.625,79.17 L234.625,80.477 C234.362,80.367 234.067,80.336 233.817,80.336 C232.512,80.336 231.657,81.58 231.657,83.57 L231.657,87.178 L230.196,87.178 L230.196,79.248" id="Fill-28" fill="#0B0B0A" sketch:type="MSShapeGroup"></path>
            <path d="M240.647,80.584 C240.088,80.352 239.528,80.242 239.061,80.242 C237.428,80.242 236.512,81.705 236.512,83.213 C236.512,84.627 237.274,86.182 239.155,86.182 C239.653,86.182 240.274,86.027 240.725,85.732 L240.834,87.037 C240.227,87.318 239.528,87.363 238.999,87.363 C236.606,87.363 234.958,85.482 234.958,83.213 C234.958,80.803 236.575,79.061 238.999,79.061 C239.59,79.061 240.352,79.201 240.772,79.371 L240.647,80.584" id="Fill-29" fill="#0B0B0A" sketch:type="MSShapeGroup"></path>
            <path d="M241.885,75.516 L243.348,75.516 L243.348,80.383 L243.379,80.383 C243.907,79.543 244.825,79.061 245.928,79.061 C247.981,79.061 248.899,80.336 248.899,82.467 L248.899,87.178 L247.436,87.178 L247.436,83.072 C247.436,81.223 247.032,80.32 245.758,80.242 C244.094,80.242 243.348,81.58 243.348,83.508 L243.348,87.178 L241.885,87.178 L241.885,75.516" id="Fill-30" fill="#0B0B0A" sketch:type="MSShapeGroup"></path>
            <path d="M127.888,8.727 L120.464,28.385 C118.808,32.768 117.616,37.078 112.228,37.078 C112.075,37.078 111.925,37.065 111.772,37.059 L110.317,33.029 C110.675,33.061 111.083,33.078 111.571,33.078 C113.651,33.078 114.921,31.656 114.921,29.541 L107.34,8.727 L113.036,8.727 L117.808,23.192 L117.884,23.192 L122.657,8.727 L127.888,8.727 L127.888,8.727 Z M170.834,8.727 L163.413,28.385 C161.754,32.768 160.563,37.078 155.174,37.078 C155.022,37.078 154.872,37.065 154.719,37.059 L153.264,33.029 C153.624,33.061 154.03,33.078 154.518,33.078 C156.6,33.078 157.868,31.656 157.868,29.541 L150.288,8.727 L155.983,8.727 L160.756,23.192 L160.833,23.192 L165.606,8.727 L170.834,8.727 L170.834,8.727 Z M39.402,3.682 C36.786,2.209 33.696,1.705 29.14,1.705 L22.206,1.705 L22.206,28.517 L30.923,28.517 C34.846,28.517 38.291,27.627 40.748,25.613 C43.442,23.365 45.067,19.879 45.067,15.226 C45.067,9.493 42.967,5.695 39.402,3.682 L39.402,3.682 Z M37.104,22.279 C35.438,23.908 33.141,24.334 30.407,24.334 L27.358,24.334 L27.358,5.928 L30.249,5.928 C32.785,5.928 34.884,6.354 36.509,7.516 C38.529,8.988 39.6,11.662 39.6,15.187 C39.6,18.404 38.688,20.73 37.104,22.279 L37.104,22.279 Z M263.553,21.943 C263.733,24.782 262.567,26.933 260.278,27.999 C259.479,28.371 258.741,28.635 258.086,28.779 C257.243,28.969 256.301,29.064 255.288,29.064 C253.303,29.064 251.055,28.117 249.327,27.064 L249.651,23.161 C249.903,23.311 250.155,23.468 250.409,23.624 C251.495,24.297 252.643,24.942 253.94,25.279 C254.409,25.401 254.915,25.465 255.405,25.465 C256.717,25.465 257.86,25.122 258.393,24.32 C259.108,23.245 258.569,21.842 257.629,21.107 C256.762,20.426 255.542,20.095 254.506,19.82 L254.336,19.776 C252.918,19.399 251.167,18.789 250.19,17.4 C249.62,16.584 249.327,15.536 249.327,14.283 C249.327,12.012 250.514,10.137 252.577,9.143 C253.874,8.517 255.389,8.201 257.079,8.201 C259.27,8.201 260.959,8.57 262.571,9.17 L261.893,13.021 C261.231,12.748 260.549,12.508 259.852,12.329 C259.35,12.201 258.85,12.076 258.338,11.996 C257.413,11.857 256.401,11.844 255.51,12.203 C254.588,12.576 253.95,13.282 254.114,14.301 C254.213,14.932 254.584,15.451 255.131,15.721 C255.799,16.055 256.807,16.355 257.633,16.586 C260.28,17.326 263.342,18.602 263.553,21.943 L263.553,21.943 Z M208.655,-0.316 L213.809,-0.316 L213.809,11.419 L213.885,11.419 C215.198,9.496 217.426,8.265 220.12,8.265 C224.813,8.265 226.852,11.572 226.852,16.036 L226.852,28.539 L221.698,28.539 L221.698,17.961 C221.698,15.536 221.659,12.266 218.352,12.266 C214.616,12.266 213.809,16.307 213.809,18.846 L213.809,28.539 L208.655,28.539 L208.655,-0.316 L208.655,-0.316 Z M195.946,12.498 L192.137,12.498 L192.137,8.727 L195.946,8.727 L195.946,2.122 L201.1,0.215 L201.1,8.727 L205.682,8.727 L205.682,12.498 L201.1,12.498 L201.1,21.728 C201.1,23.426 201.563,24.999 203.526,24.999 C204.448,24.999 205.334,24.811 205.872,24.463 L206.026,28.539 C204.95,28.85 203.754,29 202.217,29 C198.178,29 195.946,26.499 195.946,22.576 L195.946,12.498 L195.946,12.498 Z M172.676,8.727 L177.565,8.727 L177.565,11.419 L177.641,11.419 C179.258,9.151 181.45,8.265 184.143,8.265 C188.834,8.265 190.874,11.572 190.874,16.036 L190.874,28.539 L185.721,28.539 L185.721,17.961 C185.721,15.536 185.68,12.266 182.372,12.266 C178.639,12.266 177.831,16.307 177.831,18.848 L177.831,28.539 L172.676,28.539 L172.676,8.727 L172.676,8.727 Z M148.26,6.607 C146.567,5.882 144.682,5.457 142.797,5.457 C141.168,5.457 139.364,6.34 138.782,7.921 C138.19,9.539 139.1,10.928 140.479,11.734 C141.268,12.199 142.139,12.519 142.991,12.848 C145.184,13.695 147.53,14.549 148.995,16.5 C149.948,17.777 150.34,19.297 150.34,20.883 C150.34,26.769 145.686,29 140.258,29 C137.333,29 135.1,28.17 132.45,27.516 L132.877,22.573 C134.723,23.572 137.909,24.677 140.022,24.677 C141.788,24.678 143.975,23.753 144.403,21.885 C144.901,19.707 142.827,18.198 141.098,17.418 C138.083,16.057 134.502,15.475 133.331,11.879 C133.038,10.984 132.895,9.893 132.975,8.952 C133.1,7.52 133.674,5.756 134.543,4.592 C137.59,0.515 143.297,0.781 147.631,1.848 C147.909,1.918 149,2.217 149.293,2.398 L148.26,6.607 L148.26,6.607 Z M105.494,28.539 L100.61,28.539 L100.61,25.846 L100.532,25.846 C98.954,27.771 96.724,29 94.033,29 C89.337,29 87.301,25.689 87.301,21.228 L87.301,8.727 L92.455,8.727 L92.455,19.307 C92.455,21.727 92.492,24.999 95.802,24.999 C99.531,24.999 100.341,20.963 100.341,18.419 L100.341,8.727 L105.494,8.727 L105.494,28.539 L105.494,28.539 Z M67.113,1.684 L73.92,1.684 C79.512,1.684 85.115,3.376 85.115,9.799 C85.115,16.076 80.312,18.342 74.768,18.342 L72.497,18.342 L72.497,28.539 L67.113,28.539 L67.113,1.684 L67.113,1.684 Z M72.497,14.257 L74.88,14.257 C77.576,14.257 80,13.226 80,10.111 C80,6.996 77.652,5.822 74.88,5.822 L72.497,5.822 L72.497,14.257 L72.497,14.257 Z M246.706,27.136 C244.684,28.15 242.879,29 239.499,29 C232.961,29 229.151,25.231 229.151,18.729 C229.151,12.998 232.188,8.265 238.342,8.265 C245.69,8.265 247.926,13.48 247.616,20.232 L234.071,20.232 C234.305,23.428 236.547,24.746 239.741,24.738 C242.467,24.731 245.079,23.631 246.706,22.66 L246.706,27.136 L246.706,27.136 Z M242.844,16.691 C242.692,14.189 241.536,12.034 238.651,12.034 C235.764,12.034 234.305,14.039 234.071,16.691 L242.844,16.691 L242.844,16.691 Z M64.125,27.136 C62.102,28.15 60.298,29 56.917,29 C50.378,29 46.568,25.231 46.568,18.729 C46.568,12.998 49.606,8.265 55.763,8.265 C63.111,8.265 65.345,13.48 65.035,20.232 L51.49,20.232 C51.723,23.428 53.966,24.746 57.157,24.738 C59.886,24.731 62.498,23.631 64.125,22.66 L64.125,27.136 L64.125,27.136 Z M60.263,16.691 C60.111,14.189 58.954,12.034 56.071,12.034 C53.185,12.034 51.723,14.039 51.49,16.691 L60.263,16.691 L60.263,16.691 Z" id="Fill-31" fill="#17344E" sketch:type="MSShapeGroup"></path>
            <path d="M22.185,35.277 L27.565,35.277 L27.565,62.099 L22.185,62.099 L22.185,35.277 Z" id="Fill-32" fill="#17344E" sketch:type="MSShapeGroup"></path>
            <path d="M29.562,42.31 L34.442,42.31 L34.442,45 L34.519,45 C36.133,42.732 38.323,41.85 41.014,41.85 C45.702,41.85 47.738,45.154 47.738,49.611 L47.738,62.1 L42.589,62.1 L42.589,51.533 C42.589,49.111 42.551,45.846 39.246,45.846 C35.519,45.846 34.711,49.881 34.711,52.416 L34.711,62.1 L29.562,62.1 L29.562,42.31" id="Fill-33" fill="#17344E" sketch:type="MSShapeGroup"></path>
            <path d="M61.899,46.461 C60.323,45.922 59.171,45.615 57.288,45.615 C55.904,45.615 54.252,46.115 54.252,47.805 C54.252,50.955 63.206,48.959 63.206,56.105 C63.206,60.717 59.094,62.56 54.905,62.56 C52.945,62.56 50.947,62.217 49.064,61.717 L49.372,57.488 C50.985,58.297 52.677,58.795 54.444,58.795 C55.751,58.795 57.826,58.297 57.826,56.375 C57.826,52.494 48.872,55.144 48.872,47.998 C48.872,43.732 52.6,41.85 56.634,41.85 C59.056,41.85 60.631,42.233 62.245,42.58 L61.899,46.461" id="Fill-34" fill="#17344E" sketch:type="MSShapeGroup"></path>
            <path d="M78.761,42.31 L83.911,42.31 L83.911,62.099 L78.761,62.099 L78.761,42.31 Z M78.761,33.779 L83.911,33.779 L83.911,38.698 L78.761,38.698 L78.761,33.779 Z" id="Fill-35" fill="#17344E" sketch:type="MSShapeGroup"></path>
            <path d="M119.343,62.1 L114.462,62.1 L114.462,59.41 L114.386,59.41 C112.81,61.332 110.581,62.56 107.892,62.56 C103.202,62.56 101.166,59.256 101.166,54.799 L101.166,42.31 L106.315,42.31 L106.315,52.877 C106.315,55.299 106.354,58.564 109.659,58.564 C113.386,58.564 114.192,54.529 114.192,51.994 L114.192,42.31 L119.343,42.31 L119.343,62.1" id="Fill-36" fill="#17344E" sketch:type="MSShapeGroup"></path>
            <path d="M149.133,50.264 C148.979,47.767 147.827,45.615 144.944,45.615 C142.061,45.615 140.604,47.613 140.375,50.264 L149.133,50.264 L149.133,50.264 Z M152.592,60.986 C150.709,62.023 148.557,62.56 145.79,62.56 C139.264,62.56 135.459,58.795 135.459,52.301 C135.459,46.576 138.495,41.85 144.635,41.85 C151.977,41.85 154.053,46.883 154.053,53.799 L140.375,53.799 C140.604,56.99 142.829,58.795 146.018,58.795 C148.518,58.795 150.67,57.873 152.592,56.797 L152.592,60.986 L152.592,60.986 Z" id="Fill-37" fill="#17344E" sketch:type="MSShapeGroup"></path>
            <path d="M67.21,46.039 L63.401,46.039 L63.401,42.267 L67.21,42.267 L67.21,35.663 L72.364,33.756 L72.364,42.267 L76.946,42.267 L76.946,46.039 L72.364,46.039 L72.364,55.269 C72.364,56.967 72.828,58.541 74.791,58.541 C75.712,58.541 76.6,58.354 77.136,58.004 L77.29,62.08 C76.214,62.391 75.019,62.541 73.481,62.541 C69.442,62.541 67.21,60.041 67.21,56.117 L67.21,46.039" id="Fill-38" fill="#17344E" sketch:type="MSShapeGroup"></path>
            <path d="M89.569,46.039 L85.759,46.039 L85.759,42.267 L89.569,42.267 L89.569,35.663 L94.723,33.756 L94.723,42.267 L99.304,42.267 L99.304,46.039 L94.723,46.039 L94.723,55.269 C94.723,56.967 95.186,58.541 97.149,58.541 C98.07,58.541 98.958,58.354 99.495,58.004 L99.648,62.08 C98.571,62.391 97.378,62.541 95.84,62.541 C91.8,62.541 89.569,60.041 89.569,56.117 L89.569,46.039" id="Fill-39" fill="#17344E" sketch:type="MSShapeGroup"></path>
            <path d="M124.874,46.039 L121.063,46.039 L121.063,42.267 L124.874,42.267 L124.874,35.663 L130.027,33.756 L130.027,42.267 L134.608,42.267 L134.608,46.039 L130.027,46.039 L130.027,55.269 C130.027,56.967 130.491,58.541 132.454,58.541 C133.374,58.541 134.262,58.354 134.799,58.004 L134.952,62.08 C133.875,62.391 132.682,62.541 131.145,62.541 C127.104,62.541 124.874,60.041 124.874,56.117 L124.874,46.039" id="Fill-40" fill="#17344E" sketch:type="MSShapeGroup"></path>
        </g>
    </g>
</svg>